<svg width="24" height="24" viewBox="0 0 24 24" fill="none" xmlns="http://www.w3.org/2000/svg">
<path d="M1.60046 1.59993C1.49445 1.59843 1.3892 1.61802 1.29082 1.65755C1.19245 1.69708 1.10291 1.75577 1.02741 1.83021C0.951919 1.90464 0.89197 1.99334 0.851052 2.09114C0.810134 2.18895 0.789062 2.29391 0.789062 2.39993C0.789062 2.50595 0.810134 2.61092 0.851052 2.70872C0.89197 2.80653 0.951919 2.89523 1.02741 2.96966C1.10291 3.0441 1.19245 3.10279 1.29082 3.14232C1.3892 3.18185 1.49445 3.20143 1.60046 3.19993H3.10358C3.2843 3.19993 3.4351 3.3131 3.48639 3.48743L6.89577 15.0781C7.195 16.0954 8.13598 16.7999 9.19733 16.7999H17.9786C19.0573 16.7999 20.0098 16.0709 20.2942 15.0312L22.3723 7.41087C22.4048 7.29216 22.4094 7.16757 22.3858 7.04679C22.3622 6.92601 22.3111 6.81229 22.2364 6.71448C22.1618 6.61667 22.0655 6.53741 21.9552 6.48285C21.8449 6.4283 21.7235 6.39992 21.6005 6.39993H6.01139L5.02233 3.03587H5.02077C4.77126 2.1878 3.98686 1.59993 3.10358 1.59993H1.60046ZM9.60046 18.3999C9.17611 18.3999 8.76914 18.5685 8.46909 18.8686C8.16903 19.1686 8.00046 19.5756 8.00046 19.9999C8.00046 20.4243 8.16903 20.8312 8.46909 21.1313C8.76914 21.4314 9.17611 21.5999 9.60046 21.5999C10.0248 21.5999 10.4318 21.4314 10.7318 21.1313C11.0319 20.8312 11.2005 20.4243 11.2005 19.9999C11.2005 19.5756 11.0319 19.1686 10.7318 18.8686C10.4318 18.5685 10.0248 18.3999 9.60046 18.3999ZM17.6005 18.3999C17.1761 18.3999 16.7691 18.5685 16.4691 18.8686C16.169 19.1686 16.0005 19.5756 16.0005 19.9999C16.0005 20.4243 16.169 20.8312 16.4691 21.1313C16.7691 21.4314 17.1761 21.5999 17.6005 21.5999C18.0248 21.5999 18.4318 21.4314 18.7318 21.1313C19.0319 20.8312 19.2005 20.4243 19.2005 19.9999C19.2005 19.5756 19.0319 19.1686 18.7318 18.8686C18.4318 18.5685 18.0248 18.3999 17.6005 18.3999Z" fill="#D74A2D"/>
</svg>
