<svg width="40" height="40" viewBox="0 0 40 40" fill="none" xmlns="http://www.w3.org/2000/svg">
<path d="M7.33325 5.33325C6.22925 5.33325 5.33325 6.22925 5.33325 7.33325V11.3333C5.33325 12.4373 6.22925 13.3333 7.33325 13.3333H11.3333C12.4373 13.3333 13.3333 12.4373 13.3333 11.3333V7.33325C13.3333 6.22925 12.4373 5.33325 11.3333 5.33325H7.33325ZM28.6666 5.33325C27.5626 5.33325 26.6666 6.22925 26.6666 7.33325V11.3333C26.6666 12.4373 27.5626 13.3333 28.6666 13.3333H32.6666C33.7706 13.3333 34.6666 12.4373 34.6666 11.3333V7.33325C34.6666 6.22925 33.7706 5.33325 32.6666 5.33325H28.6666ZM17.3333 7.99992C16.9796 7.99992 16.6405 8.14039 16.3904 8.39044C16.1404 8.64049 15.9999 8.97963 15.9999 9.33325C15.9999 9.68687 16.1404 10.026 16.3904 10.2761C16.6405 10.5261 16.9796 10.6666 17.3333 10.6666C17.6869 10.6666 18.026 10.5261 18.2761 10.2761C18.5261 10.026 18.6666 9.68687 18.6666 9.33325C18.6666 8.97963 18.5261 8.64049 18.2761 8.39044C18.026 8.14039 17.6869 7.99992 17.3333 7.99992ZM22.6666 7.99992C22.313 7.99992 21.9738 8.14039 21.7238 8.39044C21.4737 8.64049 21.3333 8.97963 21.3333 9.33325C21.3333 9.68687 21.4737 10.026 21.7238 10.2761C21.9738 10.5261 22.313 10.6666 22.6666 10.6666C23.0202 10.6666 23.3593 10.5261 23.6094 10.2761C23.8594 10.026 23.9999 9.68687 23.9999 9.33325C23.9999 8.97963 23.8594 8.64049 23.6094 8.39044C23.3593 8.14039 23.0202 7.99992 22.6666 7.99992ZM9.33325 15.9999C8.97963 15.9999 8.64049 16.1404 8.39044 16.3904C8.14039 16.6405 7.99992 16.9796 7.99992 17.3333C7.99992 17.6869 8.14039 18.026 8.39044 18.2761C8.64049 18.5261 8.97963 18.6666 9.33325 18.6666C9.68687 18.6666 10.026 18.5261 10.2761 18.2761C10.5261 18.026 10.6666 17.6869 10.6666 17.3333C10.6666 16.9796 10.5261 16.6405 10.2761 16.3904C10.026 16.1404 9.68687 15.9999 9.33325 15.9999ZM30.6666 15.9999C30.313 15.9999 29.9738 16.1404 29.7238 16.3904C29.4737 16.6405 29.3333 16.9796 29.3333 17.3333C29.3333 17.6869 29.4737 18.026 29.7238 18.2761C29.9738 18.5261 30.313 18.6666 30.6666 18.6666C31.0202 18.6666 31.3593 18.5261 31.6094 18.2761C31.8594 18.026 31.9999 17.6869 31.9999 17.3333C31.9999 16.9796 31.8594 16.6405 31.6094 16.3904C31.3593 16.1404 31.0202 15.9999 30.6666 15.9999ZM9.33325 21.3333C8.97963 21.3333 8.64049 21.4737 8.39044 21.7238C8.14039 21.9738 7.99992 22.313 7.99992 22.6666C7.99992 23.0202 8.14039 23.3593 8.39044 23.6094C8.64049 23.8594 8.97963 23.9999 9.33325 23.9999C9.68687 23.9999 10.026 23.8594 10.2761 23.6094C10.5261 23.3593 10.6666 23.0202 10.6666 22.6666C10.6666 22.313 10.5261 21.9738 10.2761 21.7238C10.026 21.4737 9.68687 21.3333 9.33325 21.3333ZM30.6666 21.3333C30.313 21.3333 29.9738 21.4737 29.7238 21.7238C29.4737 21.9738 29.3333 22.313 29.3333 22.6666C29.3333 23.0202 29.4737 23.3593 29.7238 23.6094C29.9738 23.8594 30.313 23.9999 30.6666 23.9999C31.0202 23.9999 31.3593 23.8594 31.6094 23.6094C31.8594 23.3593 31.9999 23.0202 31.9999 22.6666C31.9999 22.313 31.8594 21.9738 31.6094 21.7238C31.3593 21.4737 31.0202 21.3333 30.6666 21.3333ZM7.33325 26.6666C6.22925 26.6666 5.33325 27.5626 5.33325 28.6666V32.6666C5.33325 33.7706 6.22925 34.6666 7.33325 34.6666H11.3333C12.4373 34.6666 13.3333 33.7706 13.3333 32.6666V28.6666C13.3333 27.5626 12.4373 26.6666 11.3333 26.6666H7.33325ZM28.6666 26.6666C27.5626 26.6666 26.6666 27.5626 26.6666 28.6666V32.6666C26.6666 33.7706 27.5626 34.6666 28.6666 34.6666H32.6666C33.7706 34.6666 34.6666 33.7706 34.6666 32.6666V28.6666C34.6666 27.5626 33.7706 26.6666 32.6666 26.6666H28.6666ZM17.3333 29.3333C16.9796 29.3333 16.6405 29.4737 16.3904 29.7238C16.1404 29.9738 15.9999 30.313 15.9999 30.6666C15.9999 31.0202 16.1404 31.3593 16.3904 31.6094C16.6405 31.8594 16.9796 31.9999 17.3333 31.9999C17.6869 31.9999 18.026 31.8594 18.2761 31.6094C18.5261 31.3593 18.6666 31.0202 18.6666 30.6666C18.6666 30.313 18.5261 29.9738 18.2761 29.7238C18.026 29.4737 17.6869 29.3333 17.3333 29.3333ZM22.6666 29.3333C22.313 29.3333 21.9738 29.4737 21.7238 29.7238C21.4737 29.9738 21.3333 30.313 21.3333 30.6666C21.3333 31.0202 21.4737 31.3593 21.7238 31.6094C21.9738 31.8594 22.313 31.9999 22.6666 31.9999C23.0202 31.9999 23.3593 31.8594 23.6094 31.6094C23.8594 31.3593 23.9999 31.0202 23.9999 30.6666C23.9999 30.313 23.8594 29.9738 23.6094 29.7238C23.3593 29.4737 23.0202 29.3333 22.6666 29.3333Z" fill="#D74A2D"/>
</svg>
