<svg width="20" height="14" viewBox="0 0 20 14" fill="none" xmlns="http://www.w3.org/2000/svg">
<path d="M8.23008 1.15722C8.08475 0.75322 7.93808 0.345887 7.93541 0.340554C7.86541 0.183887 7.70341 0.08522 7.53275 0.102553C7.42475 0.11122 4.86941 0.33122 3.23208 1.64789C2.37608 2.43855 0.666748 7.06122 0.666748 11.0579C0.666748 11.1286 0.684748 11.1972 0.720081 11.2586C1.90075 13.3319 5.11941 13.8746 5.85275 13.8979C5.85741 13.8986 5.86141 13.8986 5.86541 13.8986C5.99475 13.8986 6.11608 13.8366 6.19341 13.7319L6.98675 12.6572C5.67608 12.4579 5.43941 12.1979 5.38408 12.1572C5.08808 11.9392 4.86941 11.6339 5.13475 11.2486C5.33875 10.9492 5.76675 10.8506 6.09475 11.0192C6.43075 11.1759 7.33008 11.6799 10.0001 11.6666C12.6514 11.6586 13.8154 11.1032 13.8321 11.0912C14.2774 10.8906 14.6247 10.9732 14.8414 11.2706C15.0994 11.6752 14.9154 11.9492 14.6207 12.1666C14.5654 12.2072 14.4314 12.3212 13.0234 12.6546L13.8067 13.7312C13.8834 13.8366 14.0054 13.8979 14.1347 13.8979C14.1394 13.8979 14.1434 13.8979 14.1474 13.8972C14.8814 13.8739 18.1001 13.3312 19.2801 11.2579C19.3154 11.1966 19.3334 11.1279 19.3334 11.0572C19.3334 7.06122 17.6241 2.43855 16.7467 1.63055C15.1307 0.331887 12.5754 0.111887 12.4674 0.102553C12.2967 0.0878867 12.1347 0.184554 12.0647 0.340554C12.0621 0.345887 11.9194 0.759887 11.7814 1.15922C11.7814 1.15922 10.6941 0.999887 10.0001 0.999887C9.30608 0.999887 8.23008 1.15722 8.23008 1.15722ZM7.33341 9.66655C6.59675 9.66655 6.00008 8.77789 6.00008 7.68055C6.00008 6.58322 6.59675 5.69455 7.33341 5.69455C8.07275 5.58455 8.65075 6.58322 8.66675 7.68055C8.66675 8.77789 8.07008 9.66655 7.33341 9.66655ZM12.6667 9.66655C11.9301 9.66655 11.3334 8.77189 11.3334 7.66855C11.3334 6.56522 11.9301 5.67055 12.6667 5.67055C13.4034 5.67055 14.0001 6.56522 14.0001 7.66855C14.0001 8.77189 13.4034 9.66655 12.6667 9.66655Z" fill="#2082EA"/>
</svg>
