<svg width="40" height="40" viewBox="0 0 40 40" fill="none" xmlns="http://www.w3.org/2000/svg">
<path d="M25.3334 2.66675L12.323 8.2006L12.3204 8.20321C11.8041 8.41631 11.3678 8.78613 11.073 9.2605L11.0678 9.2631L11.0079 9.36206C11.0017 9.37244 10.9957 9.38285 10.9897 9.39331L7.10425 15.8725V15.8751C6.81979 16.3083 6.66776 16.8151 6.66675 17.3334C6.66688 17.7643 6.77143 18.1887 6.97144 18.5704L9.54175 23.1173L9.56779 23.1016C10.0825 21.2043 11.4909 19.6925 13.3256 19.0365L12.724 17.9063L16.1589 14.8334H21.6589L19.1199 18.6433L13.6329 21.7996L13.6355 21.8022C13.1378 22.0968 12.7254 22.5157 12.4386 23.018C12.1519 23.5202 12.0008 24.0884 12.0001 24.6667C12.0001 25.5508 12.3513 26.3986 12.9764 27.0238C13.6015 27.6489 14.4494 28.0001 15.3334 28.0001C15.8156 27.999 16.2919 27.8932 16.7292 27.6902V27.6928L16.7761 27.6694C16.8173 27.6502 16.8581 27.6303 16.8985 27.6095L27.4194 22.3464C27.4828 22.3172 27.5454 22.2859 27.6069 22.2527L27.6121 22.2475C28.1318 21.9595 28.5652 21.5378 28.8673 21.0261L28.8777 21.0157L28.8959 20.9792C28.9631 20.8623 29.0231 20.7415 29.0756 20.6173L34.6667 9.33342L25.3334 2.66675ZM9.35164 25.7657C8.50364 26.963 8.00008 28.4214 8.00008 30.0001C8.00008 34.0507 11.2827 37.3334 15.3334 37.3334C19.3841 37.3334 22.6667 34.0507 22.6667 30.0001C22.6667 29.2521 22.5544 28.529 22.3464 27.849C19.8638 29.0917 17.6496 30.1976 17.6016 30.2136C16.8723 30.515 16.1107 30.6667 15.3334 30.6667C12.4054 30.6667 9.96025 28.56 9.43758 25.7813C9.40825 25.78 9.38098 25.7684 9.35164 25.7657Z" fill="#D74A2D"/>
</svg>
