<svg width="22" height="19" viewBox="0 0 22 19" fill="none" xmlns="http://www.w3.org/2000/svg">
<g clip-path="url(#clip0_1_2)">
<path d="M6.49955 0.576904C4.9058 0.576904 3.45628 1.12859 2.43224 2.1346C1.4082 3.14061 0.845703 4.57931 0.845703 6.23075C0.845703 9.02522 2.55844 11.1094 4.50916 12.8654C6.45989 14.6214 8.73513 16.1755 10.2784 18C10.4479 18.2127 10.7003 18.3389 10.9707 18.3461H11.0284C11.2988 18.3389 11.5512 18.2127 11.7207 18C13.264 16.1755 15.5392 14.6214 17.4899 12.8654C19.4407 11.1094 21.1534 9.02522 21.1534 6.23075C21.1534 4.57931 20.5621 3.14061 19.538 2.1346C18.514 1.12859 17.0933 0.576904 15.4995 0.576904C13.9202 0.576904 12.6258 1.43868 11.7207 2.22114C11.2772 2.60335 11.2556 2.70791 10.9995 2.99998C10.7471 2.70791 10.7219 2.60335 10.2784 2.22114C9.37695 1.43868 8.07888 0.576904 6.49955 0.576904ZM6.49955 2.42306C7.36854 2.42306 8.33849 3.00359 9.06686 3.6346C9.79522 4.26561 10.2495 4.87498 10.2495 4.87498C10.4226 5.11657 10.7039 5.2608 10.9995 5.2608C11.2952 5.2608 11.5765 5.11657 11.7495 4.87498C11.7495 4.87498 12.2003 4.26561 12.9322 3.6346C13.6642 3.00359 14.627 2.42306 15.4995 2.42306C16.6858 2.42306 17.6197 2.8269 18.2688 3.46152C18.9178 4.09614 19.3072 4.99397 19.3072 6.23075C19.3072 8.27522 18.0705 9.84013 16.2496 11.4808C14.6378 12.9339 12.669 14.4231 10.9995 16.1827C9.32647 14.4158 7.36493 12.9339 5.74955 11.4808C3.92864 9.84013 2.69186 8.27522 2.69186 6.23075C2.69186 4.99397 3.08128 4.09614 3.73032 3.46152C4.37936 2.8269 5.30965 2.42306 6.49955 2.42306Z" fill="#D74A2D"/>
<path d="M6.12501 1C7.06642 1 8.1172 1.67505 8.90627 2.4088C9.69533 3.14256 10.1875 3.85114 10.1875 3.85114C10.375 4.13207 10.6797 4.29978 11 4.29978C11.3203 4.29978 11.6251 4.13207 11.8125 3.85114C11.8125 3.85114 12.3008 3.14256 13.0937 2.4088C13.8867 1.67505 14.9298 1 15.875 1C17.1601 1 18.1719 1.46959 18.8751 2.20754C19.5781 2.94549 20 3.98951 20 5.42766C20 7.80502 18.6602 9.62473 16.6876 11.5325C14.9415 13.2222 12.8086 14.9539 11 17C9.18751 14.9454 7.06251 13.2222 5.31251 11.5325C3.33985 9.62473 2 7.80502 2 5.42766C2 3.98951 2.42187 2.94549 3.125 2.20754C3.82813 1.46959 4.83595 1 6.12501 1Z" fill="#D74A2D"/>
</g>
<defs>
<clipPath id="clip0_1_2">
<rect width="22" height="19" fill="white"/>
</clipPath>
</defs>
</svg>
