<svg width="18" height="18" viewBox="0 0 18 18" fill="none" xmlns="http://www.w3.org/2000/svg">
<g clip-path="url(#clip0_256_923)">
<path d="M3.7502 14.0999L2.5502 12.8999L1.9502 13.4249L3.7502 15.1499L6.67518 12.2999L6.07521 11.7749L3.7502 14.0999Z" fill="#FF507D"/>
<path d="M17.55 10.05L7.5 0H1.5C0.67498 0 0 0.67498 0 1.5V7.5L2.02502 9.52502C0.82502 10.275 0 11.55 0 13.125C0 15.375 1.87498 17.25 4.12502 17.25C5.62502 17.25 6.97502 16.4251 7.72502 15.225L10.05 17.55C10.65 18.15 11.625 18.15 12.15 17.55L17.55 12.15C18.15 11.55 18.15 10.65 17.55 10.05ZM4.12502 16.5C2.25004 16.5 0.750039 15 0.750039 13.125C0.750039 11.25 2.25004 9.75004 4.12502 9.75004C6 9.75004 7.5 11.25 7.5 13.125C7.5 15 6 16.5 4.12502 16.5ZM17.025 11.625L11.625 17.025C11.325 17.325 10.875 17.325 10.575 17.025L8.02506 14.475C8.17506 14.025 8.25004 13.65 8.25004 13.125C8.25004 10.875 6.37506 9 4.12502 9C3.67502 9 3.22502 9.07498 2.85 9.22498L0.75 7.12498V1.5C0.75 1.05 1.12498 0.75 1.5 0.75H7.12502L17.025 10.575C17.325 10.8 17.325 11.325 17.025 11.625Z" fill="#FF507D"/>
<path d="M4.12498 2.25C3.07498 2.25 2.25 3.07502 2.25 4.12498C2.25 5.17494 3.07498 6 4.12498 6C5.17498 6 5.99996 5.17498 5.99996 4.12502C5.99996 3.07506 5.17494 2.25 4.12498 2.25ZM4.12498 5.25C3.52498 5.25 2.99996 4.72498 2.99996 4.12498C2.99996 3.52498 3.52498 3 4.12498 3C4.72498 3 5.25 3.52502 5.25 4.12502C5.25 4.72502 4.72494 5.25 4.12498 5.25Z" fill="#FF507D"/>
</g>
<defs>
<clipPath id="clip0_256_923">
<rect width="18" height="18" fill="white"/>
</clipPath>
</defs>
</svg>
