<svg width="933" height="112" viewBox="0 0 933 112" fill="none" xmlns="http://www.w3.org/2000/svg">
<g filter="url(#filter0_d_11_53)">
<path d="M11 16.24V38H7.4V9.6H10.44L27.8 31.8V9.64H31.4V38H28.12L11 16.24ZM47.5897 38.4C46.0164 38.4 44.5897 38.12 43.3097 37.56C42.0297 36.9733 40.923 36.1867 39.9897 35.2C39.0564 34.1867 38.3364 33.0267 37.8297 31.72C37.323 30.4133 37.0697 29.04 37.0697 27.6C37.0697 26.1333 37.323 24.7467 37.8297 23.44C38.3364 22.1333 39.0564 20.9867 39.9897 20C40.923 18.9867 42.0297 18.2 43.3097 17.64C44.6164 17.0533 46.043 16.76 47.5897 16.76C49.163 16.76 50.5897 17.0533 51.8697 17.64C53.1497 18.2 54.2564 18.9867 55.1897 20C56.1497 20.9867 56.883 22.1333 57.3897 23.44C57.8964 24.7467 58.1497 26.1333 58.1497 27.6C58.1497 29.04 57.8964 30.4133 57.3897 31.72C56.883 33.0267 56.163 34.1867 55.2297 35.2C54.2964 36.1867 53.1764 36.9733 51.8697 37.56C50.5897 38.12 49.163 38.4 47.5897 38.4ZM40.6697 27.64C40.6697 29.08 40.9764 30.3867 41.5897 31.56C42.2297 32.7333 43.0697 33.6667 44.1097 34.36C45.1497 35.0267 46.3097 35.36 47.5897 35.36C48.8697 35.36 50.0297 35.0133 51.0697 34.32C52.1364 33.6267 52.9764 32.6933 53.5897 31.52C54.2297 30.32 54.5497 29 54.5497 27.56C54.5497 26.12 54.2297 24.8133 53.5897 23.64C52.9764 22.4667 52.1364 21.5333 51.0697 20.84C50.0297 20.1467 48.8697 19.8 47.5897 19.8C46.3097 19.8 45.1497 20.16 44.1097 20.88C43.0697 21.5733 42.2297 22.5067 41.5897 23.68C40.9764 24.8533 40.6697 26.1733 40.6697 27.64ZM93.0522 38H89.5322V26.32C89.5322 24.1067 89.1855 22.4933 88.4922 21.48C87.8255 20.44 86.7989 19.92 85.4122 19.92C84.4522 19.92 83.4922 20.16 82.5322 20.64C81.5989 21.12 80.7589 21.7733 80.0122 22.6C79.2922 23.4 78.7722 24.3333 78.4522 25.4V38H74.9322V17.12H78.1322V21.6C78.6922 20.6133 79.4122 19.76 80.2922 19.04C81.1722 18.32 82.1722 17.76 83.2922 17.36C84.4122 16.96 85.5855 16.76 86.8122 16.76C88.0122 16.76 89.0122 16.9867 89.8122 17.44C90.6389 17.8667 91.2789 18.48 91.7322 19.28C92.2122 20.0533 92.5455 20.9733 92.7322 22.04C92.9455 23.1067 93.0522 24.2667 93.0522 25.52V38ZM98.0859 31.96C98.0859 30.6267 98.4593 29.48 99.2059 28.52C99.9793 27.5333 101.033 26.7733 102.366 26.24C103.699 25.7067 105.246 25.44 107.006 25.44C107.939 25.44 108.926 25.52 109.966 25.68C111.006 25.8133 111.926 26.0267 112.726 26.32V24.8C112.726 23.2 112.246 21.9467 111.286 21.04C110.326 20.1067 108.966 19.64 107.206 19.64C106.059 19.64 104.953 19.8533 103.886 20.28C102.846 20.68 101.739 21.2667 100.566 22.04L99.2859 19.56C100.646 18.6267 102.006 17.9333 103.366 17.48C104.726 17 106.139 16.76 107.606 16.76C110.273 16.76 112.379 17.5067 113.926 19C115.473 20.4667 116.246 22.52 116.246 25.16V34C116.246 34.4267 116.326 34.7467 116.486 34.96C116.673 35.1467 116.966 35.2533 117.366 35.28V38C117.019 38.0533 116.713 38.0933 116.446 38.12C116.206 38.1467 116.006 38.16 115.846 38.16C115.019 38.16 114.393 37.9333 113.966 37.48C113.566 37.0267 113.339 36.5467 113.286 36.04L113.206 34.72C112.299 35.8933 111.113 36.8 109.646 37.44C108.179 38.08 106.726 38.4 105.286 38.4C103.899 38.4 102.659 38.12 101.566 37.56C100.473 36.9733 99.6193 36.2 99.0059 35.24C98.3926 34.2533 98.0859 33.16 98.0859 31.96ZM111.686 33.44C112.006 33.0667 112.259 32.6933 112.446 32.32C112.633 31.92 112.726 31.5867 112.726 31.32V28.72C111.899 28.4 111.033 28.16 110.126 28C109.219 27.8133 108.326 27.72 107.446 27.72C105.659 27.72 104.206 28.08 103.086 28.8C101.993 29.4933 101.446 30.4533 101.446 31.68C101.446 32.3467 101.619 33 101.966 33.64C102.339 34.2533 102.873 34.76 103.566 35.16C104.286 35.56 105.166 35.76 106.206 35.76C107.299 35.76 108.339 35.5467 109.326 35.12C110.313 34.6667 111.099 34.1067 111.686 33.44ZM154.554 38H151.034V26.32C151.034 24.1333 150.674 22.52 149.954 21.48C149.261 20.44 148.221 19.92 146.834 19.92C145.421 19.92 144.141 20.44 142.994 21.48C141.848 22.4933 141.034 23.8133 140.554 25.44V38H137.034V26.32C137.034 24.1067 136.688 22.4933 135.994 21.48C135.301 20.44 134.261 19.92 132.874 19.92C131.488 19.92 130.208 20.4267 129.034 21.44C127.888 22.4267 127.074 23.7467 126.594 25.4V38H123.074V17.12H126.274V21.6C127.128 20.0533 128.234 18.8667 129.594 18.04C130.954 17.1867 132.488 16.76 134.194 16.76C135.928 16.76 137.314 17.24 138.354 18.2C139.394 19.1333 140.034 20.3467 140.274 21.84C141.208 20.1867 142.341 18.9333 143.674 18.08C145.008 17.2 146.528 16.76 148.234 16.76C149.434 16.76 150.434 16.9867 151.234 17.44C152.061 17.8667 152.714 18.48 153.194 19.28C153.674 20.0533 154.021 20.9733 154.234 22.04C154.448 23.1067 154.554 24.2667 154.554 25.52V38ZM170.467 38.4C168.894 38.4 167.454 38.12 166.147 37.56C164.867 36.9733 163.747 36.1867 162.787 35.2C161.854 34.1867 161.121 33.0267 160.587 31.72C160.081 30.4133 159.827 29.0267 159.827 27.56C159.827 25.5867 160.281 23.7867 161.187 22.16C162.094 20.5333 163.347 19.2267 164.947 18.24C166.574 17.2533 168.427 16.76 170.507 16.76C172.614 16.76 174.441 17.2667 175.987 18.28C177.561 19.2667 178.774 20.5733 179.627 22.2C180.507 23.8 180.947 25.5333 180.947 27.4C180.947 27.6667 180.934 27.9333 180.907 28.2C180.907 28.44 180.894 28.6267 180.867 28.76H163.547C163.654 30.12 164.027 31.3333 164.667 32.4C165.334 33.44 166.187 34.2667 167.227 34.88C168.267 35.4667 169.387 35.76 170.587 35.76C171.867 35.76 173.067 35.44 174.187 34.8C175.334 34.16 176.121 33.32 176.547 32.28L179.587 33.12C179.134 34.1333 178.454 35.04 177.547 35.84C176.667 36.64 175.614 37.2667 174.387 37.72C173.187 38.1733 171.881 38.4 170.467 38.4ZM163.427 26.32H177.667C177.561 24.96 177.174 23.76 176.507 22.72C175.841 21.68 174.987 20.8667 173.947 20.28C172.907 19.6933 171.761 19.4 170.507 19.4C169.281 19.4 168.147 19.6933 167.107 20.28C166.067 20.8667 165.214 21.68 164.547 22.72C163.907 23.76 163.534 24.96 163.427 26.32ZM197.378 38V17.12H200.898V38H197.378ZM197.378 13.2V8.8H200.898V13.2H197.378ZM214.956 38.4C213.223 38.4 211.596 38.12 210.076 37.56C208.556 36.9733 207.25 36.1067 206.156 34.96L207.516 32.48C208.716 33.6 209.916 34.4 211.116 34.88C212.316 35.36 213.543 35.6 214.796 35.6C216.236 35.6 217.41 35.3333 218.316 34.8C219.223 34.24 219.676 33.4267 219.676 32.36C219.676 31.5867 219.436 31.0133 218.956 30.64C218.503 30.2667 217.85 29.96 216.996 29.72C216.143 29.4533 215.13 29.16 213.956 28.84C212.516 28.4133 211.303 27.96 210.316 27.48C209.33 27 208.583 26.4 208.076 25.68C207.57 24.96 207.316 24.0533 207.316 22.96C207.316 21.6267 207.663 20.5067 208.356 19.6C209.05 18.6667 209.996 17.96 211.196 17.48C212.423 17 213.81 16.76 215.356 16.76C216.903 16.76 218.303 17 219.556 17.48C220.81 17.96 221.89 18.6667 222.796 19.6L221.196 22.04C220.37 21.1867 219.463 20.56 218.476 20.16C217.49 19.7333 216.383 19.52 215.156 19.52C214.436 19.52 213.73 19.6133 213.036 19.8C212.343 19.96 211.77 20.2667 211.316 20.72C210.863 21.1467 210.636 21.76 210.636 22.56C210.636 23.2267 210.81 23.76 211.156 24.16C211.53 24.5333 212.063 24.8533 212.756 25.12C213.476 25.3867 214.343 25.68 215.356 26C216.93 26.4533 218.29 26.9067 219.436 27.36C220.61 27.8133 221.516 28.4 222.156 29.12C222.796 29.84 223.116 30.84 223.116 32.12C223.116 34.0933 222.37 35.64 220.876 36.76C219.383 37.8533 217.41 38.4 214.956 38.4ZM238.205 31.96C238.205 30.6267 238.578 29.48 239.325 28.52C240.098 27.5333 241.151 26.7733 242.485 26.24C243.818 25.7067 245.365 25.44 247.125 25.44C248.058 25.44 249.045 25.52 250.085 25.68C251.125 25.8133 252.045 26.0267 252.845 26.32V24.8C252.845 23.2 252.365 21.9467 251.405 21.04C250.445 20.1067 249.085 19.64 247.325 19.64C246.178 19.64 245.071 19.8533 244.005 20.28C242.965 20.68 241.858 21.2667 240.685 22.04L239.405 19.56C240.765 18.6267 242.125 17.9333 243.485 17.48C244.845 17 246.258 16.76 247.725 16.76C250.391 16.76 252.498 17.5067 254.045 19C255.591 20.4667 256.365 22.52 256.365 25.16V34C256.365 34.4267 256.445 34.7467 256.605 34.96C256.791 35.1467 257.085 35.2533 257.485 35.28V38C257.138 38.0533 256.831 38.0933 256.565 38.12C256.325 38.1467 256.125 38.16 255.965 38.16C255.138 38.16 254.511 37.9333 254.085 37.48C253.685 37.0267 253.458 36.5467 253.405 36.04L253.325 34.72C252.418 35.8933 251.231 36.8 249.765 37.44C248.298 38.08 246.845 38.4 245.405 38.4C244.018 38.4 242.778 38.12 241.685 37.56C240.591 36.9733 239.738 36.2 239.125 35.24C238.511 34.2533 238.205 33.16 238.205 31.96ZM251.805 33.44C252.125 33.0667 252.378 32.6933 252.565 32.32C252.751 31.92 252.845 31.5867 252.845 31.32V28.72C252.018 28.4 251.151 28.16 250.245 28C249.338 27.8133 248.445 27.72 247.565 27.72C245.778 27.72 244.325 28.08 243.205 28.8C242.111 29.4933 241.565 30.4533 241.565 31.68C241.565 32.3467 241.738 33 242.085 33.64C242.458 34.2533 242.991 34.76 243.685 35.16C244.405 35.56 245.285 35.76 246.325 35.76C247.418 35.76 248.458 35.5467 249.445 35.12C250.431 34.6667 251.218 34.1067 251.805 33.44ZM305.99 38H302.47V26.32C302.47 24.1333 302.11 22.52 301.39 21.48C300.697 20.44 299.657 19.92 298.27 19.92C296.857 19.92 295.577 20.44 294.43 21.48C293.284 22.4933 292.47 23.8133 291.99 25.44V38H288.47V26.32C288.47 24.1067 288.124 22.4933 287.43 21.48C286.737 20.44 285.697 19.92 284.31 19.92C282.924 19.92 281.644 20.4267 280.47 21.44C279.324 22.4267 278.51 23.7467 278.03 25.4V38H274.51V17.12H277.71V21.6C278.564 20.0533 279.67 18.8667 281.03 18.04C282.39 17.1867 283.924 16.76 285.63 16.76C287.364 16.76 288.75 17.24 289.79 18.2C290.83 19.1333 291.47 20.3467 291.71 21.84C292.644 20.1867 293.777 18.9333 295.11 18.08C296.444 17.2 297.964 16.76 299.67 16.76C300.87 16.76 301.87 16.9867 302.67 17.44C303.497 17.8667 304.15 18.48 304.63 19.28C305.11 20.0533 305.457 20.9733 305.67 22.04C305.884 23.1067 305.99 24.2667 305.99 25.52V38ZM312.463 29.64V17.12H315.983V28.96C315.983 31.0933 316.357 32.6933 317.103 33.76C317.85 34.8267 318.957 35.36 320.423 35.36C321.383 35.36 322.303 35.16 323.183 34.76C324.09 34.3333 324.903 33.7333 325.623 32.96C326.343 32.1867 326.903 31.2667 327.303 30.2V17.12H330.823V34C330.823 34.4267 330.903 34.7467 331.063 34.96C331.25 35.1467 331.543 35.2533 331.943 35.28V38C331.543 38.0533 331.223 38.08 330.983 38.08C330.77 38.1067 330.557 38.12 330.343 38.12C329.677 38.12 329.103 37.92 328.623 37.52C328.143 37.0933 327.89 36.5733 327.863 35.96L327.783 33.52C326.877 35.0667 325.65 36.2667 324.103 37.12C322.583 37.9733 320.917 38.4 319.103 38.4C316.917 38.4 315.263 37.6667 314.143 36.2C313.023 34.7067 312.463 32.52 312.463 29.64ZM337.967 8.8H341.487V32.6C341.487 33.7467 341.647 34.4533 341.967 34.72C342.287 34.9867 342.674 35.12 343.127 35.12C343.687 35.12 344.22 35.0667 344.727 34.96C345.234 34.8267 345.66 34.6933 346.007 34.56L346.567 37.44C345.98 37.68 345.287 37.88 344.487 38.04C343.687 38.2 342.98 38.28 342.367 38.28C341.007 38.28 339.927 37.8933 339.127 37.12C338.354 36.3467 337.967 35.2667 337.967 33.88V8.8ZM361.332 36.96C361.039 37.0933 360.639 37.2667 360.132 37.48C359.626 37.6933 359.039 37.88 358.372 38.04C357.706 38.2 356.999 38.28 356.252 38.28C355.399 38.28 354.612 38.1333 353.892 37.84C353.172 37.52 352.599 37.04 352.172 36.4C351.746 35.7333 351.532 34.9067 351.532 33.92V19.88H348.692V17.12H351.532V10.16H355.052V17.12H359.732V19.88H355.052V32.84C355.106 33.5867 355.359 34.1467 355.812 34.52C356.266 34.8667 356.799 35.04 357.412 35.04C358.106 35.04 358.746 34.92 359.332 34.68C359.919 34.44 360.306 34.2667 360.492 34.16L361.332 36.96ZM365.795 38V17.12H369.315V38H365.795ZM365.795 13.2V8.8H369.315V13.2H365.795ZM387.453 38.4C385.747 38.4 384.227 37.9733 382.893 37.12C381.56 36.2667 380.507 35.1867 379.733 33.88V46.52H376.213V17.12H379.333V21.04C380.16 19.76 381.24 18.7333 382.573 17.96C383.907 17.16 385.36 16.76 386.933 16.76C388.373 16.76 389.693 17.0533 390.893 17.64C392.093 18.2267 393.133 19.0267 394.013 20.04C394.893 21.0533 395.573 22.2133 396.053 23.52C396.56 24.8 396.813 26.1467 396.813 27.56C396.813 29.5333 396.413 31.3467 395.613 33C394.84 34.6533 393.747 35.9733 392.333 36.96C390.92 37.92 389.293 38.4 387.453 38.4ZM386.373 35.36C387.413 35.36 388.347 35.1467 389.173 34.72C390.027 34.2667 390.747 33.68 391.333 32.96C391.947 32.2133 392.413 31.3733 392.733 30.44C393.053 29.5067 393.213 28.5467 393.213 27.56C393.213 26.52 393.027 25.5333 392.653 24.6C392.307 23.6667 391.8 22.84 391.133 22.12C390.493 21.4 389.733 20.84 388.853 20.44C388 20.0133 387.067 19.8 386.053 19.8C385.413 19.8 384.747 19.92 384.053 20.16C383.387 20.4 382.747 20.7467 382.133 21.2C381.52 21.6267 381 22.12 380.573 22.68C380.147 23.24 379.867 23.84 379.733 24.48V30.44C380.133 31.3467 380.667 32.1733 381.333 32.92C382 33.6667 382.773 34.2667 383.653 34.72C384.533 35.1467 385.44 35.36 386.373 35.36ZM402.135 29.64V17.12H405.655V28.96C405.655 31.0933 406.029 32.6933 406.775 33.76C407.522 34.8267 408.629 35.36 410.095 35.36C411.055 35.36 411.975 35.16 412.855 34.76C413.762 34.3333 414.575 33.7333 415.295 32.96C416.015 32.1867 416.575 31.2667 416.975 30.2V17.12H420.495V34C420.495 34.4267 420.575 34.7467 420.735 34.96C420.922 35.1467 421.215 35.2533 421.615 35.28V38C421.215 38.0533 420.895 38.08 420.655 38.08C420.442 38.1067 420.229 38.12 420.015 38.12C419.349 38.12 418.775 37.92 418.295 37.52C417.815 37.0933 417.562 36.5733 417.535 35.96L417.455 33.52C416.549 35.0667 415.322 36.2667 413.775 37.12C412.255 37.9733 410.589 38.4 408.775 38.4C406.589 38.4 404.935 37.6667 403.815 36.2C402.695 34.7067 402.135 32.52 402.135 29.64ZM438.599 20.2C436.839 20.2267 435.279 20.68 433.919 21.56C432.585 22.4133 431.639 23.6 431.079 25.12V38H427.559V17.12H430.839V21.96C431.559 20.52 432.505 19.36 433.679 18.48C434.879 17.5733 436.132 17.0667 437.439 16.96C437.705 16.96 437.932 16.96 438.119 16.96C438.305 16.96 438.465 16.9733 438.599 17V20.2ZM454.53 38.4C452.823 38.4 451.303 37.9733 449.97 37.12C448.637 36.2667 447.583 35.1867 446.81 33.88V46.52H443.29V17.12H446.41V21.04C447.237 19.76 448.317 18.7333 449.65 17.96C450.983 17.16 452.437 16.76 454.01 16.76C455.45 16.76 456.77 17.0533 457.97 17.64C459.17 18.2267 460.21 19.0267 461.09 20.04C461.97 21.0533 462.65 22.2133 463.13 23.52C463.637 24.8 463.89 26.1467 463.89 27.56C463.89 29.5333 463.49 31.3467 462.69 33C461.917 34.6533 460.823 35.9733 459.41 36.96C457.997 37.92 456.37 38.4 454.53 38.4ZM453.45 35.36C454.49 35.36 455.423 35.1467 456.25 34.72C457.103 34.2667 457.823 33.68 458.41 32.96C459.023 32.2133 459.49 31.3733 459.81 30.44C460.13 29.5067 460.29 28.5467 460.29 27.56C460.29 26.52 460.103 25.5333 459.73 24.6C459.383 23.6667 458.877 22.84 458.21 22.12C457.57 21.4 456.81 20.84 455.93 20.44C455.077 20.0133 454.143 19.8 453.13 19.8C452.49 19.8 451.823 19.92 451.13 20.16C450.463 20.4 449.823 20.7467 449.21 21.2C448.597 21.6267 448.077 22.12 447.65 22.68C447.223 23.24 446.943 23.84 446.81 24.48V30.44C447.21 31.3467 447.743 32.1733 448.41 32.92C449.077 33.6667 449.85 34.2667 450.73 34.72C451.61 35.1467 452.517 35.36 453.45 35.36ZM478.532 38.4C476.959 38.4 475.532 38.12 474.252 37.56C472.972 36.9733 471.865 36.1867 470.932 35.2C469.999 34.1867 469.279 33.0267 468.772 31.72C468.265 30.4133 468.012 29.04 468.012 27.6C468.012 26.1333 468.265 24.7467 468.772 23.44C469.279 22.1333 469.999 20.9867 470.932 20C471.865 18.9867 472.972 18.2 474.252 17.64C475.559 17.0533 476.985 16.76 478.532 16.76C480.105 16.76 481.532 17.0533 482.812 17.64C484.092 18.2 485.199 18.9867 486.132 20C487.092 20.9867 487.825 22.1333 488.332 23.44C488.839 24.7467 489.092 26.1333 489.092 27.6C489.092 29.04 488.839 30.4133 488.332 31.72C487.825 33.0267 487.105 34.1867 486.172 35.2C485.239 36.1867 484.119 36.9733 482.812 37.56C481.532 38.12 480.105 38.4 478.532 38.4ZM471.612 27.64C471.612 29.08 471.919 30.3867 472.532 31.56C473.172 32.7333 474.012 33.6667 475.052 34.36C476.092 35.0267 477.252 35.36 478.532 35.36C479.812 35.36 480.972 35.0133 482.012 34.32C483.079 33.6267 483.919 32.6933 484.532 31.52C485.172 30.32 485.492 29 485.492 27.56C485.492 26.12 485.172 24.8133 484.532 23.64C483.919 22.4667 483.079 21.5333 482.012 20.84C480.972 20.1467 479.812 19.8 478.532 19.8C477.252 19.8 476.092 20.16 475.052 20.88C474.012 21.5733 473.172 22.5067 472.532 23.68C471.919 24.8533 471.612 26.1733 471.612 27.64ZM501.717 38.4C499.984 38.4 498.357 38.12 496.837 37.56C495.317 36.9733 494.011 36.1067 492.917 34.96L494.277 32.48C495.477 33.6 496.677 34.4 497.877 34.88C499.077 35.36 500.304 35.6 501.557 35.6C502.997 35.6 504.171 35.3333 505.077 34.8C505.984 34.24 506.437 33.4267 506.437 32.36C506.437 31.5867 506.197 31.0133 505.717 30.64C505.264 30.2667 504.611 29.96 503.757 29.72C502.904 29.4533 501.891 29.16 500.717 28.84C499.277 28.4133 498.064 27.96 497.077 27.48C496.091 27 495.344 26.4 494.837 25.68C494.331 24.96 494.077 24.0533 494.077 22.96C494.077 21.6267 494.424 20.5067 495.117 19.6C495.811 18.6667 496.757 17.96 497.957 17.48C499.184 17 500.571 16.76 502.117 16.76C503.664 16.76 505.064 17 506.317 17.48C507.571 17.96 508.651 18.6667 509.557 19.6L507.957 22.04C507.131 21.1867 506.224 20.56 505.237 20.16C504.251 19.7333 503.144 19.52 501.917 19.52C501.197 19.52 500.491 19.6133 499.797 19.8C499.104 19.96 498.531 20.2667 498.077 20.72C497.624 21.1467 497.397 21.76 497.397 22.56C497.397 23.2267 497.571 23.76 497.917 24.16C498.291 24.5333 498.824 24.8533 499.517 25.12C500.237 25.3867 501.104 25.68 502.117 26C503.691 26.4533 505.051 26.9067 506.197 27.36C507.371 27.8133 508.277 28.4 508.917 29.12C509.557 29.84 509.877 30.84 509.877 32.12C509.877 34.0933 509.131 35.64 507.637 36.76C506.144 37.8533 504.171 38.4 501.717 38.4ZM524.528 38.4C522.955 38.4 521.515 38.12 520.208 37.56C518.928 36.9733 517.808 36.1867 516.848 35.2C515.915 34.1867 515.182 33.0267 514.648 31.72C514.142 30.4133 513.888 29.0267 513.888 27.56C513.888 25.5867 514.342 23.7867 515.248 22.16C516.155 20.5333 517.408 19.2267 519.008 18.24C520.635 17.2533 522.488 16.76 524.568 16.76C526.675 16.76 528.502 17.2667 530.048 18.28C531.622 19.2667 532.835 20.5733 533.688 22.2C534.568 23.8 535.008 25.5333 535.008 27.4C535.008 27.6667 534.995 27.9333 534.968 28.2C534.968 28.44 534.955 28.6267 534.928 28.76H517.608C517.715 30.12 518.088 31.3333 518.728 32.4C519.395 33.44 520.248 34.2667 521.288 34.88C522.328 35.4667 523.448 35.76 524.648 35.76C525.928 35.76 527.128 35.44 528.248 34.8C529.395 34.16 530.182 33.32 530.608 32.28L533.648 33.12C533.195 34.1333 532.515 35.04 531.608 35.84C530.728 36.64 529.675 37.2667 528.448 37.72C527.248 38.1733 525.942 38.4 524.528 38.4ZM517.488 26.32H531.728C531.622 24.96 531.235 23.76 530.568 22.72C529.902 21.68 529.048 20.8667 528.008 20.28C526.968 19.6933 525.822 19.4 524.568 19.4C523.342 19.4 522.208 19.6933 521.168 20.28C520.128 20.8667 519.275 21.68 518.608 22.72C517.968 23.76 517.595 24.96 517.488 26.32ZM562.678 38.4C560.972 38.4 559.452 37.9733 558.118 37.12C556.785 36.2667 555.732 35.1867 554.958 33.88V46.52H551.438V17.12H554.558V21.04C555.385 19.76 556.465 18.7333 557.798 17.96C559.132 17.16 560.585 16.76 562.158 16.76C563.598 16.76 564.918 17.0533 566.118 17.64C567.318 18.2267 568.358 19.0267 569.238 20.04C570.118 21.0533 570.798 22.2133 571.278 23.52C571.785 24.8 572.038 26.1467 572.038 27.56C572.038 29.5333 571.638 31.3467 570.838 33C570.065 34.6533 568.972 35.9733 567.558 36.96C566.145 37.92 564.518 38.4 562.678 38.4ZM561.598 35.36C562.638 35.36 563.572 35.1467 564.398 34.72C565.252 34.2667 565.972 33.68 566.558 32.96C567.172 32.2133 567.638 31.3733 567.958 30.44C568.278 29.5067 568.438 28.5467 568.438 27.56C568.438 26.52 568.252 25.5333 567.878 24.6C567.532 23.6667 567.025 22.84 566.358 22.12C565.718 21.4 564.958 20.84 564.078 20.44C563.225 20.0133 562.292 19.8 561.278 19.8C560.638 19.8 559.972 19.92 559.278 20.16C558.612 20.4 557.972 20.7467 557.358 21.2C556.745 21.6267 556.225 22.12 555.798 22.68C555.372 23.24 555.092 23.84 554.958 24.48V30.44C555.358 31.3467 555.892 32.1733 556.558 32.92C557.225 33.6667 557.998 34.2667 558.878 34.72C559.758 35.1467 560.665 35.36 561.598 35.36ZM577.64 8.8H581.16V32.6C581.16 33.7467 581.32 34.4533 581.64 34.72C581.96 34.9867 582.347 35.12 582.8 35.12C583.36 35.12 583.894 35.0667 584.4 34.96C584.907 34.8267 585.334 34.6933 585.68 34.56L586.24 37.44C585.654 37.68 584.96 37.88 584.16 38.04C583.36 38.2 582.654 38.28 582.04 38.28C580.68 38.28 579.6 37.8933 578.8 37.12C578.027 36.3467 577.64 35.2667 577.64 33.88V8.8ZM588.566 31.96C588.566 30.6267 588.939 29.48 589.686 28.52C590.459 27.5333 591.512 26.7733 592.846 26.24C594.179 25.7067 595.726 25.44 597.486 25.44C598.419 25.44 599.406 25.52 600.446 25.68C601.486 25.8133 602.406 26.0267 603.206 26.32V24.8C603.206 23.2 602.726 21.9467 601.766 21.04C600.806 20.1067 599.446 19.64 597.686 19.64C596.539 19.64 595.432 19.8533 594.366 20.28C593.326 20.68 592.219 21.2667 591.046 22.04L589.766 19.56C591.126 18.6267 592.486 17.9333 593.846 17.48C595.206 17 596.619 16.76 598.086 16.76C600.752 16.76 602.859 17.5067 604.406 19C605.952 20.4667 606.726 22.52 606.726 25.16V34C606.726 34.4267 606.806 34.7467 606.966 34.96C607.152 35.1467 607.446 35.2533 607.846 35.28V38C607.499 38.0533 607.192 38.0933 606.926 38.12C606.686 38.1467 606.486 38.16 606.326 38.16C605.499 38.16 604.872 37.9333 604.446 37.48C604.046 37.0267 603.819 36.5467 603.766 36.04L603.686 34.72C602.779 35.8933 601.592 36.8 600.126 37.44C598.659 38.08 597.206 38.4 595.766 38.4C594.379 38.4 593.139 38.12 592.046 37.56C590.952 36.9733 590.099 36.2 589.486 35.24C588.872 34.2533 588.566 33.16 588.566 31.96ZM602.166 33.44C602.486 33.0667 602.739 32.6933 602.926 32.32C603.112 31.92 603.206 31.5867 603.206 31.32V28.72C602.379 28.4 601.512 28.16 600.606 28C599.699 27.8133 598.806 27.72 597.926 27.72C596.139 27.72 594.686 28.08 593.566 28.8C592.472 29.4933 591.926 30.4533 591.926 31.68C591.926 32.3467 592.099 33 592.446 33.64C592.819 34.2533 593.352 34.76 594.046 35.16C594.766 35.56 595.646 35.76 596.686 35.76C597.779 35.76 598.819 35.5467 599.806 35.12C600.792 34.6667 601.579 34.1067 602.166 33.44ZM624.198 36.96C623.904 37.0933 623.504 37.2667 622.998 37.48C622.491 37.6933 621.904 37.88 621.238 38.04C620.571 38.2 619.864 38.28 619.118 38.28C618.264 38.28 617.478 38.1333 616.758 37.84C616.038 37.52 615.464 37.04 615.038 36.4C614.611 35.7333 614.398 34.9067 614.398 33.92V19.88H611.558V17.12H614.398V10.16H617.918V17.12H622.598V19.88H617.918V32.84C617.971 33.5867 618.224 34.1467 618.678 34.52C619.131 34.8667 619.664 35.04 620.278 35.04C620.971 35.04 621.611 34.92 622.198 34.68C622.784 34.44 623.171 34.2667 623.358 34.16L624.198 36.96ZM629.78 38V19.88H626.94V17.12H629.78V16.68C629.78 14.9733 630.034 13.5067 630.54 12.28C631.074 11.0267 631.82 10.0667 632.78 9.4C633.74 8.73333 634.874 8.4 636.18 8.4C637.007 8.4 637.82 8.52 638.62 8.76C639.42 8.97333 640.14 9.28 640.78 9.68L639.9 12.28C639.527 12.0133 639.06 11.8 638.5 11.64C637.967 11.48 637.434 11.4 636.9 11.4C635.754 11.4 634.86 11.8533 634.22 12.76C633.607 13.64 633.3 14.9067 633.3 16.56V17.12H638.86V19.88H633.3V38H629.78ZM652.183 38.4C650.61 38.4 649.183 38.12 647.903 37.56C646.623 36.9733 645.517 36.1867 644.583 35.2C643.65 34.1867 642.93 33.0267 642.423 31.72C641.917 30.4133 641.663 29.04 641.663 27.6C641.663 26.1333 641.917 24.7467 642.423 23.44C642.93 22.1333 643.65 20.9867 644.583 20C645.517 18.9867 646.623 18.2 647.903 17.64C649.21 17.0533 650.637 16.76 652.183 16.76C653.757 16.76 655.183 17.0533 656.463 17.64C657.743 18.2 658.85 18.9867 659.783 20C660.743 20.9867 661.477 22.1333 661.983 23.44C662.49 24.7467 662.743 26.1333 662.743 27.6C662.743 29.04 662.49 30.4133 661.983 31.72C661.477 33.0267 660.757 34.1867 659.823 35.2C658.89 36.1867 657.77 36.9733 656.463 37.56C655.183 38.12 653.757 38.4 652.183 38.4ZM645.263 27.64C645.263 29.08 645.57 30.3867 646.183 31.56C646.823 32.7333 647.663 33.6667 648.703 34.36C649.743 35.0267 650.903 35.36 652.183 35.36C653.463 35.36 654.623 35.0133 655.663 34.32C656.73 33.6267 657.57 32.6933 658.183 31.52C658.823 30.32 659.143 29 659.143 27.56C659.143 26.12 658.823 24.8133 658.183 23.64C657.57 22.4667 656.73 21.5333 655.663 20.84C654.623 20.1467 653.463 19.8 652.183 19.8C650.903 19.8 649.743 20.16 648.703 20.88C647.663 21.5733 646.823 22.5067 646.183 23.68C645.57 24.8533 645.263 26.1733 645.263 27.64ZM679.249 20.2C677.489 20.2267 675.929 20.68 674.569 21.56C673.235 22.4133 672.289 23.6 671.729 25.12V38H668.209V17.12H671.489V21.96C672.209 20.52 673.155 19.36 674.329 18.48C675.529 17.5733 676.782 17.0667 678.089 16.96C678.355 16.96 678.582 16.96 678.769 16.96C678.955 16.96 679.115 16.9733 679.249 17V20.2ZM715.42 38H711.9V26.32C711.9 24.1333 711.54 22.52 710.82 21.48C710.127 20.44 709.087 19.92 707.7 19.92C706.287 19.92 705.007 20.44 703.86 21.48C702.713 22.4933 701.9 23.8133 701.42 25.44V38H697.9V26.32C697.9 24.1067 697.553 22.4933 696.86 21.48C696.167 20.44 695.127 19.92 693.74 19.92C692.353 19.92 691.073 20.4267 689.9 21.44C688.753 22.4267 687.94 23.7467 687.46 25.4V38H683.94V17.12H687.14V21.6C687.993 20.0533 689.1 18.8667 690.46 18.04C691.82 17.1867 693.353 16.76 695.06 16.76C696.793 16.76 698.18 17.24 699.22 18.2C700.26 19.1333 700.9 20.3467 701.14 21.84C702.073 20.1867 703.207 18.9333 704.54 18.08C705.873 17.2 707.393 16.76 709.1 16.76C710.3 16.76 711.3 16.9867 712.1 17.44C712.927 17.8667 713.58 18.48 714.06 19.28C714.54 20.0533 714.887 20.9733 715.1 22.04C715.313 23.1067 715.42 24.2667 715.42 25.52V38ZM732.05 27.6C732.05 25.6267 732.45 23.8267 733.25 22.2C734.077 20.5467 735.197 19.2267 736.61 18.24C738.05 17.2533 739.69 16.76 741.53 16.76C743.21 16.76 744.717 17.2 746.05 18.08C747.384 18.96 748.424 20.0267 749.17 21.28V8.8H752.69V34C752.69 34.4267 752.77 34.7467 752.93 34.96C753.117 35.1467 753.41 35.2533 753.81 35.28V38C753.144 38.1067 752.624 38.16 752.25 38.16C751.557 38.16 750.944 37.92 750.41 37.44C749.904 36.96 749.65 36.4267 749.65 35.84V34.08C748.824 35.4133 747.717 36.4667 746.33 37.24C744.944 38.0133 743.504 38.4 742.01 38.4C740.57 38.4 739.237 38.12 738.01 37.56C736.81 36.9733 735.757 36.1733 734.85 35.16C733.97 34.1467 733.277 33 732.77 31.72C732.29 30.4133 732.05 29.04 732.05 27.6ZM749.17 30.68V24.68C748.85 23.7733 748.33 22.96 747.61 22.24C746.89 21.4933 746.077 20.9067 745.17 20.48C744.29 20.0267 743.41 19.8 742.53 19.8C741.49 19.8 740.544 20.0267 739.69 20.48C738.864 20.9067 738.144 21.4933 737.53 22.24C736.944 22.96 736.49 23.7867 736.17 24.72C735.85 25.6533 735.69 26.6267 735.69 27.64C735.69 28.68 735.864 29.6667 736.21 30.6C736.584 31.5333 737.09 32.36 737.73 33.08C738.397 33.8 739.157 34.36 740.01 34.76C740.89 35.16 741.837 35.36 742.85 35.36C743.49 35.36 744.144 35.24 744.81 35C745.504 34.76 746.157 34.4267 746.77 34C747.384 33.5733 747.904 33.08 748.33 32.52C748.757 31.9333 749.037 31.32 749.17 30.68ZM769.007 38.4C767.433 38.4 765.993 38.12 764.687 37.56C763.407 36.9733 762.287 36.1867 761.327 35.2C760.393 34.1867 759.66 33.0267 759.127 31.72C758.62 30.4133 758.367 29.0267 758.367 27.56C758.367 25.5867 758.82 23.7867 759.727 22.16C760.633 20.5333 761.887 19.2267 763.487 18.24C765.113 17.2533 766.967 16.76 769.047 16.76C771.153 16.76 772.98 17.2667 774.527 18.28C776.1 19.2667 777.313 20.5733 778.167 22.2C779.047 23.8 779.487 25.5333 779.487 27.4C779.487 27.6667 779.473 27.9333 779.447 28.2C779.447 28.44 779.433 28.6267 779.407 28.76H762.087C762.193 30.12 762.567 31.3333 763.207 32.4C763.873 33.44 764.727 34.2667 765.767 34.88C766.807 35.4667 767.927 35.76 769.127 35.76C770.407 35.76 771.607 35.44 772.727 34.8C773.873 34.16 774.66 33.32 775.087 32.28L778.127 33.12C777.673 34.1333 776.993 35.04 776.087 35.84C775.207 36.64 774.153 37.2667 772.927 37.72C771.727 38.1733 770.42 38.4 769.007 38.4ZM761.967 26.32H776.207C776.1 24.96 775.713 23.76 775.047 22.72C774.38 21.68 773.527 20.8667 772.487 20.28C771.447 19.6933 770.3 19.4 769.047 19.4C767.82 19.4 766.687 19.6933 765.647 20.28C764.607 20.8667 763.753 21.68 763.087 22.72C762.447 23.76 762.073 24.96 761.967 26.32ZM791.759 38.4C790.026 38.4 788.399 38.12 786.879 37.56C785.359 36.9733 784.053 36.1067 782.959 34.96L784.319 32.48C785.519 33.6 786.719 34.4 787.919 34.88C789.119 35.36 790.346 35.6 791.599 35.6C793.039 35.6 794.213 35.3333 795.119 34.8C796.026 34.24 796.479 33.4267 796.479 32.36C796.479 31.5867 796.239 31.0133 795.759 30.64C795.306 30.2667 794.653 29.96 793.799 29.72C792.946 29.4533 791.933 29.16 790.759 28.84C789.319 28.4133 788.106 27.96 787.119 27.48C786.133 27 785.386 26.4 784.879 25.68C784.373 24.96 784.119 24.0533 784.119 22.96C784.119 21.6267 784.466 20.5067 785.159 19.6C785.853 18.6667 786.799 17.96 787.999 17.48C789.226 17 790.613 16.76 792.159 16.76C793.706 16.76 795.106 17 796.359 17.48C797.613 17.96 798.693 18.6667 799.599 19.6L797.999 22.04C797.173 21.1867 796.266 20.56 795.279 20.16C794.293 19.7333 793.186 19.52 791.959 19.52C791.239 19.52 790.533 19.6133 789.839 19.8C789.146 19.96 788.573 20.2667 788.119 20.72C787.666 21.1467 787.439 21.76 787.439 22.56C787.439 23.2267 787.613 23.76 787.959 24.16C788.333 24.5333 788.866 24.8533 789.559 25.12C790.279 25.3867 791.146 25.68 792.159 26C793.733 26.4533 795.093 26.9067 796.239 27.36C797.413 27.8133 798.319 28.4 798.959 29.12C799.599 29.84 799.919 30.84 799.919 32.12C799.919 34.0933 799.173 35.64 797.679 36.76C796.186 37.8533 794.213 38.4 791.759 38.4ZM805.331 38V17.12H808.851V38H805.331ZM805.331 13.2V8.8H808.851V13.2H805.331ZM824.069 38.24C822.656 38.24 821.349 37.96 820.149 37.4C818.976 36.8133 817.963 36.0267 817.109 35.04C816.256 34.0267 815.589 32.88 815.109 31.6C814.656 30.32 814.429 28.9867 814.429 27.6C814.429 26.1333 814.656 24.7467 815.109 23.44C815.589 22.1333 816.256 20.9867 817.109 20C817.989 18.9867 819.016 18.2 820.189 17.64C821.363 17.0533 822.669 16.76 824.109 16.76C825.843 16.76 827.349 17.1867 828.629 18.04C829.936 18.8933 831.029 19.9733 831.909 21.28V17.12H835.029V37.76C835.029 39.7333 834.549 41.4 833.589 42.76C832.656 44.12 831.376 45.1467 829.749 45.84C828.149 46.56 826.363 46.92 824.389 46.92C822.043 46.92 820.123 46.5067 818.629 45.68C817.136 44.8533 815.896 43.7333 814.909 42.32L816.949 40.52C817.776 41.7467 818.843 42.6667 820.149 43.28C821.483 43.8933 822.896 44.2 824.389 44.2C825.669 44.2 826.843 43.96 827.909 43.48C829.003 43.0267 829.869 42.32 830.509 41.36C831.176 40.4 831.509 39.2 831.509 37.76V34.08C830.736 35.36 829.669 36.3733 828.309 37.12C826.976 37.8667 825.563 38.24 824.069 38.24ZM825.149 35.36C825.896 35.36 826.616 35.2267 827.309 34.96C828.003 34.6933 828.643 34.3467 829.229 33.92C829.816 33.4667 830.309 32.96 830.709 32.4C831.109 31.84 831.376 31.2667 831.509 30.68V24.68C831.136 23.72 830.603 22.88 829.909 22.16C829.216 21.4133 828.429 20.84 827.549 20.44C826.669 20.0133 825.763 19.8 824.829 19.8C823.763 19.8 822.803 20.0267 821.949 20.48C821.123 20.9333 820.416 21.5467 819.829 22.32C819.243 23.0667 818.789 23.9067 818.469 24.84C818.149 25.7733 817.989 26.72 817.989 27.68C817.989 28.72 818.176 29.7067 818.549 30.64C818.923 31.5467 819.429 32.36 820.069 33.08C820.709 33.8 821.469 34.36 822.349 34.76C823.229 35.16 824.163 35.36 825.149 35.36ZM860.03 38H856.51V26.32C856.51 24.1067 856.164 22.4933 855.47 21.48C854.804 20.44 853.777 19.92 852.39 19.92C851.43 19.92 850.47 20.16 849.51 20.64C848.577 21.12 847.737 21.7733 846.99 22.6C846.27 23.4 845.75 24.3333 845.43 25.4V38H841.91V17.12H845.11V21.6C845.67 20.6133 846.39 19.76 847.27 19.04C848.15 18.32 849.15 17.76 850.27 17.36C851.39 16.96 852.564 16.76 853.79 16.76C854.99 16.76 855.99 16.9867 856.79 17.44C857.617 17.8667 858.257 18.48 858.71 19.28C859.19 20.0533 859.524 20.9733 859.71 22.04C859.924 23.1067 860.03 24.2667 860.03 25.52V38ZM875.944 38.4C874.371 38.4 872.931 38.12 871.624 37.56C870.344 36.9733 869.224 36.1867 868.264 35.2C867.331 34.1867 866.597 33.0267 866.064 31.72C865.557 30.4133 865.304 29.0267 865.304 27.56C865.304 25.5867 865.757 23.7867 866.664 22.16C867.571 20.5333 868.824 19.2267 870.424 18.24C872.051 17.2533 873.904 16.76 875.984 16.76C878.091 16.76 879.917 17.2667 881.464 18.28C883.037 19.2667 884.251 20.5733 885.104 22.2C885.984 23.8 886.424 25.5333 886.424 27.4C886.424 27.6667 886.411 27.9333 886.384 28.2C886.384 28.44 886.371 28.6267 886.344 28.76H869.024C869.131 30.12 869.504 31.3333 870.144 32.4C870.811 33.44 871.664 34.2667 872.704 34.88C873.744 35.4667 874.864 35.76 876.064 35.76C877.344 35.76 878.544 35.44 879.664 34.8C880.811 34.16 881.597 33.32 882.024 32.28L885.064 33.12C884.611 34.1333 883.931 35.04 883.024 35.84C882.144 36.64 881.091 37.2667 879.864 37.72C878.664 38.1733 877.357 38.4 875.944 38.4ZM868.904 26.32H883.144C883.037 24.96 882.651 23.76 881.984 22.72C881.317 21.68 880.464 20.8667 879.424 20.28C878.384 19.6933 877.237 19.4 875.984 19.4C874.757 19.4 873.624 19.6933 872.584 20.28C871.544 20.8667 870.691 21.68 870.024 22.72C869.384 23.76 869.011 24.96 868.904 26.32ZM890.177 27.6C890.177 25.6267 890.577 23.8267 891.377 22.2C892.204 20.5467 893.324 19.2267 894.737 18.24C896.177 17.2533 897.817 16.76 899.657 16.76C901.337 16.76 902.844 17.2 904.177 18.08C905.51 18.96 906.55 20.0267 907.297 21.28V8.8H910.817V34C910.817 34.4267 910.897 34.7467 911.057 34.96C911.244 35.1467 911.537 35.2533 911.937 35.28V38C911.27 38.1067 910.75 38.16 910.377 38.16C909.684 38.16 909.07 37.92 908.537 37.44C908.03 36.96 907.777 36.4267 907.777 35.84V34.08C906.95 35.4133 905.844 36.4667 904.457 37.24C903.07 38.0133 901.63 38.4 900.137 38.4C898.697 38.4 897.364 38.12 896.137 37.56C894.937 36.9733 893.884 36.1733 892.977 35.16C892.097 34.1467 891.404 33 890.897 31.72C890.417 30.4133 890.177 29.04 890.177 27.6ZM907.297 30.68V24.68C906.977 23.7733 906.457 22.96 905.737 22.24C905.017 21.4933 904.204 20.9067 903.297 20.48C902.417 20.0267 901.537 19.8 900.657 19.8C899.617 19.8 898.67 20.0267 897.817 20.48C896.99 20.9067 896.27 21.4933 895.657 22.24C895.07 22.96 894.617 23.7867 894.297 24.72C893.977 25.6533 893.817 26.6267 893.817 27.64C893.817 28.68 893.99 29.6667 894.337 30.6C894.71 31.5333 895.217 32.36 895.857 33.08C896.524 33.8 897.284 34.36 898.137 34.76C899.017 35.16 899.964 35.36 900.977 35.36C901.617 35.36 902.27 35.24 902.937 35C903.63 34.76 904.284 34.4267 904.897 34C905.51 33.5733 906.03 33.08 906.457 32.52C906.884 31.9333 907.164 31.32 907.297 30.68ZM17.64 83.96C17.3467 84.0933 16.9467 84.2667 16.44 84.48C15.9333 84.6933 15.3467 84.88 14.68 85.04C14.0133 85.2 13.3067 85.28 12.56 85.28C11.7067 85.28 10.92 85.1333 10.2 84.84C9.48 84.52 8.90667 84.04 8.48 83.4C8.05333 82.7333 7.84 81.9067 7.84 80.92V66.88H5V64.12H7.84V57.16H11.36V64.12H16.04V66.88H11.36V79.84C11.4133 80.5867 11.6667 81.1467 12.12 81.52C12.5733 81.8667 13.1067 82.04 13.72 82.04C14.4133 82.04 15.0533 81.92 15.64 81.68C16.2267 81.44 16.6133 81.2667 16.8 81.16L17.64 83.96ZM30.9491 85.4C29.3757 85.4 27.9491 85.12 26.6691 84.56C25.3891 83.9733 24.2824 83.1867 23.3491 82.2C22.4157 81.1867 21.6957 80.0267 21.1891 78.72C20.6824 77.4133 20.4291 76.04 20.4291 74.6C20.4291 73.1333 20.6824 71.7467 21.1891 70.44C21.6957 69.1333 22.4157 67.9867 23.3491 67C24.2824 65.9867 25.3891 65.2 26.6691 64.64C27.9757 64.0533 29.4024 63.76 30.9491 63.76C32.5224 63.76 33.9491 64.0533 35.2291 64.64C36.5091 65.2 37.6157 65.9867 38.5491 67C39.5091 67.9867 40.2424 69.1333 40.7491 70.44C41.2557 71.7467 41.5091 73.1333 41.5091 74.6C41.5091 76.04 41.2557 77.4133 40.7491 78.72C40.2424 80.0267 39.5224 81.1867 38.5891 82.2C37.6557 83.1867 36.5357 83.9733 35.2291 84.56C33.9491 85.12 32.5224 85.4 30.9491 85.4ZM24.0291 74.64C24.0291 76.08 24.3357 77.3867 24.9491 78.56C25.5891 79.7333 26.4291 80.6667 27.4691 81.36C28.5091 82.0267 29.6691 82.36 30.9491 82.36C32.2291 82.36 33.3891 82.0133 34.4291 81.32C35.4957 80.6267 36.3357 79.6933 36.9491 78.52C37.5891 77.32 37.9091 76 37.9091 74.56C37.9091 73.12 37.5891 71.8133 36.9491 70.64C36.3357 69.4667 35.4957 68.5333 34.4291 67.84C33.3891 67.1467 32.2291 66.8 30.9491 66.8C29.6691 66.8 28.5091 67.16 27.4691 67.88C26.4291 68.5733 25.5891 69.5067 24.9491 70.68C24.3357 71.8533 24.0291 73.1733 24.0291 74.64ZM67.4116 85.4C65.8382 85.4 64.4116 85.12 63.1316 84.56C61.8516 83.9733 60.7449 83.1867 59.8116 82.2C58.8782 81.1867 58.1582 80.0267 57.6516 78.72C57.1449 77.4133 56.8916 76.04 56.8916 74.6C56.8916 73.1333 57.1449 71.7467 57.6516 70.44C58.1582 69.1333 58.8782 67.9867 59.8116 67C60.7449 65.9867 61.8516 65.2 63.1316 64.64C64.4382 64.0533 65.8649 63.76 67.4116 63.76C68.9849 63.76 70.4116 64.0533 71.6916 64.64C72.9716 65.2 74.0782 65.9867 75.0116 67C75.9716 67.9867 76.7049 69.1333 77.2116 70.44C77.7182 71.7467 77.9716 73.1333 77.9716 74.6C77.9716 76.04 77.7182 77.4133 77.2116 78.72C76.7049 80.0267 75.9849 81.1867 75.0516 82.2C74.1182 83.1867 72.9982 83.9733 71.6916 84.56C70.4116 85.12 68.9849 85.4 67.4116 85.4ZM60.4916 74.64C60.4916 76.08 60.7982 77.3867 61.4116 78.56C62.0516 79.7333 62.8916 80.6667 63.9316 81.36C64.9716 82.0267 66.1316 82.36 67.4116 82.36C68.6916 82.36 69.8516 82.0133 70.8916 81.32C71.9582 80.6267 72.7982 79.6933 73.4116 78.52C74.0516 77.32 74.3716 76 74.3716 74.56C74.3716 73.12 74.0516 71.8133 73.4116 70.64C72.7982 69.4667 71.9582 68.5333 70.8916 67.84C69.8516 67.1467 68.6916 66.8 67.4116 66.8C66.1316 66.8 64.9716 67.16 63.9316 67.88C62.8916 68.5733 62.0516 69.5067 61.4116 70.68C60.7982 71.8533 60.4916 73.1733 60.4916 74.64ZM94.6769 85.4C92.9702 85.4 91.4502 84.9733 90.1169 84.12C88.7835 83.2667 87.7302 82.1867 86.9569 80.88V93.52H83.4369V64.12H86.5569V68.04C87.3835 66.76 88.4635 65.7333 89.7969 64.96C91.1302 64.16 92.5835 63.76 94.1569 63.76C95.5969 63.76 96.9169 64.0533 98.1169 64.64C99.3169 65.2267 100.357 66.0267 101.237 67.04C102.117 68.0533 102.797 69.2133 103.277 70.52C103.784 71.8 104.037 73.1467 104.037 74.56C104.037 76.5333 103.637 78.3467 102.837 80C102.064 81.6533 100.97 82.9733 99.5569 83.96C98.1435 84.92 96.5169 85.4 94.6769 85.4ZM93.5969 82.36C94.6369 82.36 95.5702 82.1467 96.3969 81.72C97.2502 81.2667 97.9702 80.68 98.5569 79.96C99.1702 79.2133 99.6369 78.3733 99.9569 77.44C100.277 76.5067 100.437 75.5467 100.437 74.56C100.437 73.52 100.25 72.5333 99.8769 71.6C99.5302 70.6667 99.0235 69.84 98.3569 69.12C97.7169 68.4 96.9569 67.84 96.0769 67.44C95.2235 67.0133 94.2902 66.8 93.2769 66.8C92.6369 66.8 91.9702 66.92 91.2769 67.16C90.6102 67.4 89.9702 67.7467 89.3569 68.2C88.7435 68.6267 88.2235 69.12 87.7969 69.68C87.3702 70.24 87.0902 70.84 86.9569 71.48V77.44C87.3569 78.3467 87.8902 79.1733 88.5569 79.92C89.2235 80.6667 89.9969 81.2667 90.8769 81.72C91.7569 82.1467 92.6635 82.36 93.5969 82.36ZM118.799 85.4C117.225 85.4 115.785 85.12 114.479 84.56C113.199 83.9733 112.079 83.1867 111.119 82.2C110.185 81.1867 109.452 80.0267 108.919 78.72C108.412 77.4133 108.159 76.0267 108.159 74.56C108.159 72.5867 108.612 70.7867 109.519 69.16C110.425 67.5333 111.679 66.2267 113.279 65.24C114.905 64.2533 116.759 63.76 118.839 63.76C120.945 63.76 122.772 64.2667 124.319 65.28C125.892 66.2667 127.105 67.5733 127.959 69.2C128.839 70.8 129.279 72.5333 129.279 74.4C129.279 74.6667 129.265 74.9333 129.239 75.2C129.239 75.44 129.225 75.6267 129.199 75.76H111.879C111.985 77.12 112.359 78.3333 112.999 79.4C113.665 80.44 114.519 81.2667 115.559 81.88C116.599 82.4667 117.719 82.76 118.919 82.76C120.199 82.76 121.399 82.44 122.519 81.8C123.665 81.16 124.452 80.32 124.879 79.28L127.919 80.12C127.465 81.1333 126.785 82.04 125.879 82.84C124.999 83.64 123.945 84.2667 122.719 84.72C121.519 85.1733 120.212 85.4 118.799 85.4ZM111.759 73.32H125.999C125.892 71.96 125.505 70.76 124.839 69.72C124.172 68.68 123.319 67.8667 122.279 67.28C121.239 66.6933 120.092 66.4 118.839 66.4C117.612 66.4 116.479 66.6933 115.439 67.28C114.399 67.8667 113.545 68.68 112.879 69.72C112.239 70.76 111.865 71.96 111.759 73.32ZM152.512 85H148.992V73.32C148.992 71.1067 148.645 69.4933 147.952 68.48C147.285 67.44 146.258 66.92 144.872 66.92C143.912 66.92 142.952 67.16 141.992 67.64C141.058 68.12 140.218 68.7733 139.472 69.6C138.752 70.4 138.232 71.3333 137.912 72.4V85H134.392V64.12H137.592V68.6C138.152 67.6133 138.872 66.76 139.752 66.04C140.632 65.32 141.632 64.76 142.752 64.36C143.872 63.96 145.045 63.76 146.272 63.76C147.472 63.76 148.472 63.9867 149.272 64.44C150.098 64.8667 150.738 65.48 151.192 66.28C151.672 67.0533 152.005 67.9733 152.192 69.04C152.405 70.1067 152.512 71.2667 152.512 72.52V85ZM181.303 83.96C181.009 84.0933 180.609 84.2667 180.103 84.48C179.596 84.6933 179.009 84.88 178.343 85.04C177.676 85.2 176.969 85.28 176.223 85.28C175.369 85.28 174.583 85.1333 173.863 84.84C173.143 84.52 172.569 84.04 172.143 83.4C171.716 82.7333 171.503 81.9067 171.503 80.92V66.88H168.663V64.12H171.503V57.16H175.023V64.12H179.703V66.88H175.023V79.84C175.076 80.5867 175.329 81.1467 175.783 81.52C176.236 81.8667 176.769 82.04 177.383 82.04C178.076 82.04 178.716 81.92 179.303 81.68C179.889 81.44 180.276 81.2667 180.463 81.16L181.303 83.96ZM203.885 85H200.365V73.32C200.365 71.1867 199.978 69.5867 199.205 68.52C198.458 67.4533 197.378 66.92 195.965 66.92C195.058 66.92 194.138 67.16 193.205 67.64C192.298 68.12 191.498 68.7733 190.805 69.6C190.112 70.4 189.605 71.3333 189.285 72.4V85H185.765V55.8H189.285V68.6C190.112 67.1067 191.232 65.9333 192.645 65.08C194.085 64.2 195.632 63.76 197.285 63.76C198.538 63.76 199.578 63.9867 200.405 64.44C201.258 64.8667 201.938 65.48 202.445 66.28C202.952 67.08 203.312 68.0133 203.525 69.08C203.765 70.12 203.885 71.2667 203.885 72.52V85ZM219.799 85.4C218.225 85.4 216.785 85.12 215.479 84.56C214.199 83.9733 213.079 83.1867 212.119 82.2C211.185 81.1867 210.452 80.0267 209.919 78.72C209.412 77.4133 209.159 76.0267 209.159 74.56C209.159 72.5867 209.612 70.7867 210.519 69.16C211.425 67.5333 212.679 66.2267 214.279 65.24C215.905 64.2533 217.759 63.76 219.839 63.76C221.945 63.76 223.772 64.2667 225.319 65.28C226.892 66.2667 228.105 67.5733 228.959 69.2C229.839 70.8 230.279 72.5333 230.279 74.4C230.279 74.6667 230.265 74.9333 230.239 75.2C230.239 75.44 230.225 75.6267 230.199 75.76H212.879C212.985 77.12 213.359 78.3333 213.999 79.4C214.665 80.44 215.519 81.2667 216.559 81.88C217.599 82.4667 218.719 82.76 219.919 82.76C221.199 82.76 222.399 82.44 223.519 81.8C224.665 81.16 225.452 80.32 225.879 79.28L228.919 80.12C228.465 81.1333 227.785 82.04 226.879 82.84C225.999 83.64 224.945 84.2667 223.719 84.72C222.519 85.1733 221.212 85.4 219.799 85.4ZM212.759 73.32H226.999C226.892 71.96 226.505 70.76 225.839 69.72C225.172 68.68 224.319 67.8667 223.279 67.28C222.239 66.6933 221.092 66.4 219.839 66.4C218.612 66.4 217.479 66.6933 216.439 67.28C215.399 67.8667 214.545 68.68 213.879 69.72C213.239 70.76 212.865 71.96 212.759 73.32ZM271.736 64.12H275.136L266.256 85H263.176L259.136 75.16L255.136 85H252.056L243.176 64.12H246.536L253.736 81.52L257.096 72.96L253.576 64.16H256.656L259.136 70.8L261.616 64.16H264.696L261.216 72.96L264.576 81.52L271.736 64.12ZM288.044 85.4C286.471 85.4 285.044 85.12 283.764 84.56C282.484 83.9733 281.378 83.1867 280.444 82.2C279.511 81.1867 278.791 80.0267 278.284 78.72C277.778 77.4133 277.524 76.04 277.524 74.6C277.524 73.1333 277.778 71.7467 278.284 70.44C278.791 69.1333 279.511 67.9867 280.444 67C281.378 65.9867 282.484 65.2 283.764 64.64C285.071 64.0533 286.498 63.76 288.044 63.76C289.618 63.76 291.044 64.0533 292.324 64.64C293.604 65.2 294.711 65.9867 295.644 67C296.604 67.9867 297.338 69.1333 297.844 70.44C298.351 71.7467 298.604 73.1333 298.604 74.6C298.604 76.04 298.351 77.4133 297.844 78.72C297.338 80.0267 296.618 81.1867 295.684 82.2C294.751 83.1867 293.631 83.9733 292.324 84.56C291.044 85.12 289.618 85.4 288.044 85.4ZM281.124 74.64C281.124 76.08 281.431 77.3867 282.044 78.56C282.684 79.7333 283.524 80.6667 284.564 81.36C285.604 82.0267 286.764 82.36 288.044 82.36C289.324 82.36 290.484 82.0133 291.524 81.32C292.591 80.6267 293.431 79.6933 294.044 78.52C294.684 77.32 295.004 76 295.004 74.56C295.004 73.12 294.684 71.8133 294.044 70.64C293.431 69.4667 292.591 68.5333 291.524 67.84C290.484 67.1467 289.324 66.8 288.044 66.8C286.764 66.8 285.604 67.16 284.564 67.88C283.524 68.5733 282.684 69.5067 282.044 70.68C281.431 71.8533 281.124 73.1733 281.124 74.64ZM315.11 67.2C313.35 67.2267 311.79 67.68 310.43 68.56C309.096 69.4133 308.15 70.6 307.59 72.12V85H304.07V64.12H307.35V68.96C308.07 67.52 309.016 66.36 310.19 65.48C311.39 64.5733 312.643 64.0667 313.95 63.96C314.216 63.96 314.443 63.96 314.63 63.96C314.816 63.96 314.976 63.9733 315.11 64V67.2ZM319.881 55.8H323.401V79.6C323.401 80.7467 323.561 81.4533 323.881 81.72C324.201 81.9867 324.588 82.12 325.041 82.12C325.601 82.12 326.134 82.0667 326.641 81.96C327.148 81.8267 327.574 81.6933 327.921 81.56L328.481 84.44C327.894 84.68 327.201 84.88 326.401 85.04C325.601 85.2 324.894 85.28 324.281 85.28C322.921 85.28 321.841 84.8933 321.041 84.12C320.268 83.3467 319.881 82.2667 319.881 80.88V55.8ZM331.086 74.6C331.086 72.6267 331.486 70.8267 332.286 69.2C333.113 67.5467 334.233 66.2267 335.646 65.24C337.086 64.2533 338.726 63.76 340.566 63.76C342.246 63.76 343.753 64.2 345.086 65.08C346.42 65.96 347.46 67.0267 348.206 68.28V55.8H351.726V81C351.726 81.4267 351.806 81.7467 351.966 81.96C352.153 82.1467 352.446 82.2533 352.846 82.28V85C352.18 85.1067 351.66 85.16 351.286 85.16C350.593 85.16 349.98 84.92 349.446 84.44C348.94 83.96 348.686 83.4267 348.686 82.84V81.08C347.86 82.4133 346.753 83.4667 345.366 84.24C343.98 85.0133 342.54 85.4 341.046 85.4C339.606 85.4 338.273 85.12 337.046 84.56C335.846 83.9733 334.793 83.1733 333.886 82.16C333.006 81.1467 332.313 80 331.806 78.72C331.326 77.4133 331.086 76.04 331.086 74.6ZM348.206 77.68V71.68C347.886 70.7733 347.366 69.96 346.646 69.24C345.926 68.4933 345.113 67.9067 344.206 67.48C343.326 67.0267 342.446 66.8 341.566 66.8C340.526 66.8 339.58 67.0267 338.726 67.48C337.9 67.9067 337.18 68.4933 336.566 69.24C335.98 69.96 335.526 70.7867 335.206 71.72C334.886 72.6533 334.726 73.6267 334.726 74.64C334.726 75.68 334.9 76.6667 335.246 77.6C335.62 78.5333 336.126 79.36 336.766 80.08C337.433 80.8 338.193 81.36 339.046 81.76C339.926 82.16 340.873 82.36 341.886 82.36C342.526 82.36 343.18 82.24 343.846 82C344.54 81.76 345.193 81.4267 345.806 81C346.42 80.5733 346.94 80.08 347.366 79.52C347.793 78.9333 348.073 78.32 348.206 77.68ZM379.24 85.4C377.666 85.4 376.24 85.12 374.96 84.56C373.68 83.9733 372.573 83.1867 371.64 82.2C370.706 81.1867 369.986 80.0267 369.48 78.72C368.973 77.4133 368.72 76.04 368.72 74.6C368.72 73.1333 368.973 71.7467 369.48 70.44C369.986 69.1333 370.706 67.9867 371.64 67C372.573 65.9867 373.68 65.2 374.96 64.64C376.266 64.0533 377.693 63.76 379.24 63.76C380.813 63.76 382.24 64.0533 383.52 64.64C384.8 65.2 385.906 65.9867 386.84 67C387.8 67.9867 388.533 69.1333 389.04 70.44C389.546 71.7467 389.8 73.1333 389.8 74.6C389.8 76.04 389.546 77.4133 389.04 78.72C388.533 80.0267 387.813 81.1867 386.88 82.2C385.946 83.1867 384.826 83.9733 383.52 84.56C382.24 85.12 380.813 85.4 379.24 85.4ZM372.32 74.64C372.32 76.08 372.626 77.3867 373.24 78.56C373.88 79.7333 374.72 80.6667 375.76 81.36C376.8 82.0267 377.96 82.36 379.24 82.36C380.52 82.36 381.68 82.0133 382.72 81.32C383.786 80.6267 384.626 79.6933 385.24 78.52C385.88 77.32 386.2 76 386.2 74.56C386.2 73.12 385.88 71.8133 385.24 70.64C384.626 69.4667 383.786 68.5333 382.72 67.84C381.68 67.1467 380.52 66.8 379.24 66.8C377.96 66.8 376.8 67.16 375.76 67.88C374.72 68.5733 373.88 69.5067 373.24 70.68C372.626 71.8533 372.32 73.1733 372.32 74.64ZM396.033 85V66.88H393.193V64.12H396.033V63.68C396.033 61.9733 396.287 60.5067 396.793 59.28C397.327 58.0267 398.073 57.0667 399.033 56.4C399.993 55.7333 401.127 55.4 402.433 55.4C403.26 55.4 404.073 55.52 404.873 55.76C405.673 55.9733 406.393 56.28 407.033 56.68L406.153 59.28C405.78 59.0133 405.313 58.8 404.753 58.64C404.22 58.48 403.687 58.4 403.153 58.4C402.007 58.4 401.113 58.8533 400.473 59.76C399.86 60.64 399.553 61.9067 399.553 63.56V64.12H405.113V66.88H399.553V85H396.033ZM420.243 85V64.12H423.763V85H420.243ZM420.243 60.2V55.8H423.763V60.2H420.243ZM448.782 85H445.262V73.32C445.262 71.1067 444.915 69.4933 444.222 68.48C443.555 67.44 442.529 66.92 441.142 66.92C440.182 66.92 439.222 67.16 438.262 67.64C437.329 68.12 436.489 68.7733 435.742 69.6C435.022 70.4 434.502 71.3333 434.182 72.4V85H430.662V64.12H433.862V68.6C434.422 67.6133 435.142 66.76 436.022 66.04C436.902 65.32 437.902 64.76 439.022 64.36C440.142 63.96 441.315 63.76 442.542 63.76C443.742 63.76 444.742 63.9867 445.542 64.44C446.369 64.8667 447.009 65.48 447.462 66.28C447.942 67.0533 448.275 67.9733 448.462 69.04C448.675 70.1067 448.782 71.2667 448.782 72.52V85ZM461.026 85L452.826 64.12H456.506L463.066 81.64L469.626 64.12H473.066L464.866 85H461.026ZM486.325 85.4C484.752 85.4 483.312 85.12 482.005 84.56C480.725 83.9733 479.605 83.1867 478.645 82.2C477.712 81.1867 476.979 80.0267 476.445 78.72C475.939 77.4133 475.685 76.0267 475.685 74.56C475.685 72.5867 476.139 70.7867 477.045 69.16C477.952 67.5333 479.205 66.2267 480.805 65.24C482.432 64.2533 484.285 63.76 486.365 63.76C488.472 63.76 490.299 64.2667 491.845 65.28C493.419 66.2667 494.632 67.5733 495.485 69.2C496.365 70.8 496.805 72.5333 496.805 74.4C496.805 74.6667 496.792 74.9333 496.765 75.2C496.765 75.44 496.752 75.6267 496.725 75.76H479.405C479.512 77.12 479.885 78.3333 480.525 79.4C481.192 80.44 482.045 81.2667 483.085 81.88C484.125 82.4667 485.245 82.76 486.445 82.76C487.725 82.76 488.925 82.44 490.045 81.8C491.192 81.16 491.979 80.32 492.405 79.28L495.445 80.12C494.992 81.1333 494.312 82.04 493.405 82.84C492.525 83.64 491.472 84.2667 490.245 84.72C489.045 85.1733 487.739 85.4 486.325 85.4ZM479.285 73.32H493.525C493.419 71.96 493.032 70.76 492.365 69.72C491.699 68.68 490.845 67.8667 489.805 67.28C488.765 66.6933 487.619 66.4 486.365 66.4C485.139 66.4 484.005 66.6933 482.965 67.28C481.925 67.8667 481.072 68.68 480.405 69.72C479.765 70.76 479.392 71.96 479.285 73.32ZM509.078 85.4C507.345 85.4 505.718 85.12 504.198 84.56C502.678 83.9733 501.371 83.1067 500.278 81.96L501.638 79.48C502.838 80.6 504.038 81.4 505.238 81.88C506.438 82.36 507.665 82.6 508.918 82.6C510.358 82.6 511.531 82.3333 512.438 81.8C513.345 81.24 513.798 80.4267 513.798 79.36C513.798 78.5867 513.558 78.0133 513.078 77.64C512.625 77.2667 511.971 76.96 511.118 76.72C510.265 76.4533 509.251 76.16 508.078 75.84C506.638 75.4133 505.425 74.96 504.438 74.48C503.451 74 502.705 73.4 502.198 72.68C501.691 71.96 501.438 71.0533 501.438 69.96C501.438 68.6267 501.785 67.5067 502.478 66.6C503.171 65.6667 504.118 64.96 505.318 64.48C506.545 64 507.931 63.76 509.478 63.76C511.025 63.76 512.425 64 513.678 64.48C514.931 64.96 516.011 65.6667 516.918 66.6L515.318 69.04C514.491 68.1867 513.585 67.56 512.598 67.16C511.611 66.7333 510.505 66.52 509.278 66.52C508.558 66.52 507.851 66.6133 507.158 66.8C506.465 66.96 505.891 67.2667 505.438 67.72C504.985 68.1467 504.758 68.76 504.758 69.56C504.758 70.2267 504.931 70.76 505.278 71.16C505.651 71.5333 506.185 71.8533 506.878 72.12C507.598 72.3867 508.465 72.68 509.478 73C511.051 73.4533 512.411 73.9067 513.558 74.36C514.731 74.8133 515.638 75.4 516.278 76.12C516.918 76.84 517.238 77.84 517.238 79.12C517.238 81.0933 516.491 82.64 514.998 83.76C513.505 84.8533 511.531 85.4 509.078 85.4ZM533.449 83.96C533.156 84.0933 532.756 84.2667 532.249 84.48C531.743 84.6933 531.156 84.88 530.489 85.04C529.823 85.2 529.116 85.28 528.369 85.28C527.516 85.28 526.729 85.1333 526.009 84.84C525.289 84.52 524.716 84.04 524.289 83.4C523.863 82.7333 523.649 81.9067 523.649 80.92V66.88H520.809V64.12H523.649V57.16H527.169V64.12H531.849V66.88H527.169V79.84C527.223 80.5867 527.476 81.1467 527.929 81.52C528.383 81.8667 528.916 82.04 529.529 82.04C530.223 82.04 530.863 81.92 531.449 81.68C532.036 81.44 532.423 81.2667 532.609 81.16L533.449 83.96ZM569.392 85H565.872V73.32C565.872 71.1333 565.512 69.52 564.792 68.48C564.099 67.44 563.059 66.92 561.672 66.92C560.259 66.92 558.979 67.44 557.832 68.48C556.685 69.4933 555.872 70.8133 555.392 72.44V85H551.872V73.32C551.872 71.1067 551.525 69.4933 550.832 68.48C550.139 67.44 549.099 66.92 547.712 66.92C546.325 66.92 545.045 67.4267 543.872 68.44C542.725 69.4267 541.912 70.7467 541.432 72.4V85H537.912V64.12H541.112V68.6C541.965 67.0533 543.072 65.8667 544.432 65.04C545.792 64.1867 547.325 63.76 549.032 63.76C550.765 63.76 552.152 64.24 553.192 65.2C554.232 66.1333 554.872 67.3467 555.112 68.84C556.045 67.1867 557.179 65.9333 558.512 65.08C559.845 64.2 561.365 63.76 563.072 63.76C564.272 63.76 565.272 63.9867 566.072 64.44C566.899 64.8667 567.552 65.48 568.032 66.28C568.512 67.0533 568.859 67.9733 569.072 69.04C569.285 70.1067 569.392 71.2667 569.392 72.52V85ZM585.305 85.4C583.732 85.4 582.292 85.12 580.985 84.56C579.705 83.9733 578.585 83.1867 577.625 82.2C576.692 81.1867 575.958 80.0267 575.425 78.72C574.918 77.4133 574.665 76.0267 574.665 74.56C574.665 72.5867 575.118 70.7867 576.025 69.16C576.932 67.5333 578.185 66.2267 579.785 65.24C581.412 64.2533 583.265 63.76 585.345 63.76C587.452 63.76 589.278 64.2667 590.825 65.28C592.398 66.2667 593.612 67.5733 594.465 69.2C595.345 70.8 595.785 72.5333 595.785 74.4C595.785 74.6667 595.772 74.9333 595.745 75.2C595.745 75.44 595.732 75.6267 595.705 75.76H578.385C578.492 77.12 578.865 78.3333 579.505 79.4C580.172 80.44 581.025 81.2667 582.065 81.88C583.105 82.4667 584.225 82.76 585.425 82.76C586.705 82.76 587.905 82.44 589.025 81.8C590.172 81.16 590.958 80.32 591.385 79.28L594.425 80.12C593.972 81.1333 593.292 82.04 592.385 82.84C591.505 83.64 590.452 84.2667 589.225 84.72C588.025 85.1733 586.718 85.4 585.305 85.4ZM578.265 73.32H592.505C592.398 71.96 592.012 70.76 591.345 69.72C590.678 68.68 589.825 67.8667 588.785 67.28C587.745 66.6933 586.598 66.4 585.345 66.4C584.118 66.4 582.985 66.6933 581.945 67.28C580.905 67.8667 580.052 68.68 579.385 69.72C578.745 70.76 578.372 71.96 578.265 73.32ZM619.018 85H615.498V73.32C615.498 71.1067 615.151 69.4933 614.458 68.48C613.791 67.44 612.764 66.92 611.378 66.92C610.418 66.92 609.458 67.16 608.498 67.64C607.564 68.12 606.724 68.7733 605.978 69.6C605.258 70.4 604.738 71.3333 604.418 72.4V85H600.898V64.12H604.098V68.6C604.658 67.6133 605.378 66.76 606.258 66.04C607.138 65.32 608.138 64.76 609.258 64.36C610.378 63.96 611.551 63.76 612.778 63.76C613.978 63.76 614.978 63.9867 615.778 64.44C616.604 64.8667 617.244 65.48 617.698 66.28C618.178 67.0533 618.511 67.9733 618.698 69.04C618.911 70.1067 619.018 71.2667 619.018 72.52V85ZM636.296 83.96C636.003 84.0933 635.603 84.2667 635.096 84.48C634.59 84.6933 634.003 84.88 633.336 85.04C632.67 85.2 631.963 85.28 631.216 85.28C630.363 85.28 629.576 85.1333 628.856 84.84C628.136 84.52 627.563 84.04 627.136 83.4C626.71 82.7333 626.496 81.9067 626.496 80.92V66.88H623.656V64.12H626.496V57.16H630.016V64.12H634.696V66.88H630.016V79.84C630.07 80.5867 630.323 81.1467 630.776 81.52C631.23 81.8667 631.763 82.04 632.376 82.04C633.07 82.04 633.71 81.92 634.296 81.68C634.883 81.44 635.27 81.2667 635.456 81.16L636.296 83.96ZM647.919 85.4C646.185 85.4 644.559 85.12 643.039 84.56C641.519 83.9733 640.212 83.1067 639.119 81.96L640.479 79.48C641.679 80.6 642.879 81.4 644.079 81.88C645.279 82.36 646.505 82.6 647.759 82.6C649.199 82.6 650.372 82.3333 651.279 81.8C652.185 81.24 652.639 80.4267 652.639 79.36C652.639 78.5867 652.399 78.0133 651.919 77.64C651.465 77.2667 650.812 76.96 649.959 76.72C649.105 76.4533 648.092 76.16 646.919 75.84C645.479 75.4133 644.265 74.96 643.279 74.48C642.292 74 641.545 73.4 641.039 72.68C640.532 71.96 640.279 71.0533 640.279 69.96C640.279 68.6267 640.625 67.5067 641.319 66.6C642.012 65.6667 642.959 64.96 644.159 64.48C645.385 64 646.772 63.76 648.319 63.76C649.865 63.76 651.265 64 652.519 64.48C653.772 64.96 654.852 65.6667 655.759 66.6L654.159 69.04C653.332 68.1867 652.425 67.56 651.439 67.16C650.452 66.7333 649.345 66.52 648.119 66.52C647.399 66.52 646.692 66.6133 645.999 66.8C645.305 66.96 644.732 67.2667 644.279 67.72C643.825 68.1467 643.599 68.76 643.599 69.56C643.599 70.2267 643.772 70.76 644.119 71.16C644.492 71.5333 645.025 71.8533 645.719 72.12C646.439 72.3867 647.305 72.68 648.319 73C649.892 73.4533 651.252 73.9067 652.399 74.36C653.572 74.8133 654.479 75.4 655.119 76.12C655.759 76.84 656.079 77.84 656.079 79.12C656.079 81.0933 655.332 82.64 653.839 83.76C652.345 84.8533 650.372 85.4 647.919 85.4ZM673.927 85V66.88H671.087V64.12H673.927V63.68C673.927 61.9733 674.18 60.5067 674.687 59.28C675.22 58.0267 675.967 57.0667 676.927 56.4C677.887 55.7333 679.02 55.4 680.327 55.4C681.154 55.4 681.967 55.52 682.767 55.76C683.567 55.9733 684.287 56.28 684.927 56.68L684.047 59.28C683.674 59.0133 683.207 58.8 682.647 58.64C682.114 58.48 681.58 58.4 681.047 58.4C679.9 58.4 679.007 58.8533 678.367 59.76C677.754 60.64 677.447 61.9067 677.447 63.56V64.12H683.007V66.88H677.447V85H673.927ZM696.33 85.4C694.757 85.4 693.33 85.12 692.05 84.56C690.77 83.9733 689.664 83.1867 688.73 82.2C687.797 81.1867 687.077 80.0267 686.57 78.72C686.064 77.4133 685.81 76.04 685.81 74.6C685.81 73.1333 686.064 71.7467 686.57 70.44C687.077 69.1333 687.797 67.9867 688.73 67C689.664 65.9867 690.77 65.2 692.05 64.64C693.357 64.0533 694.784 63.76 696.33 63.76C697.904 63.76 699.33 64.0533 700.61 64.64C701.89 65.2 702.997 65.9867 703.93 67C704.89 67.9867 705.624 69.1333 706.13 70.44C706.637 71.7467 706.89 73.1333 706.89 74.6C706.89 76.04 706.637 77.4133 706.13 78.72C705.624 80.0267 704.904 81.1867 703.97 82.2C703.037 83.1867 701.917 83.9733 700.61 84.56C699.33 85.12 697.904 85.4 696.33 85.4ZM689.41 74.64C689.41 76.08 689.717 77.3867 690.33 78.56C690.97 79.7333 691.81 80.6667 692.85 81.36C693.89 82.0267 695.05 82.36 696.33 82.36C697.61 82.36 698.77 82.0133 699.81 81.32C700.877 80.6267 701.717 79.6933 702.33 78.52C702.97 77.32 703.29 76 703.29 74.56C703.29 73.12 702.97 71.8133 702.33 70.64C701.717 69.4667 700.877 68.5333 699.81 67.84C698.77 67.1467 697.61 66.8 696.33 66.8C695.05 66.8 693.89 67.16 692.85 67.88C691.81 68.5733 690.97 69.5067 690.33 70.68C689.717 71.8533 689.41 73.1733 689.41 74.64ZM723.396 67.2C721.636 67.2267 720.076 67.68 718.716 68.56C717.382 69.4133 716.436 70.6 715.876 72.12V85H712.356V64.12H715.636V68.96C716.356 67.52 717.302 66.36 718.476 65.48C719.676 64.5733 720.929 64.0667 722.236 63.96C722.502 63.96 722.729 63.96 722.916 63.96C723.102 63.96 723.262 63.9733 723.396 64V67.2ZM738.333 90.68C738.68 90.7067 739.026 90.7333 739.373 90.76C739.72 90.8133 739.986 90.84 740.173 90.84C740.6 90.84 740.973 90.6933 741.293 90.4C741.613 90.1067 741.96 89.5333 742.333 88.68C742.733 87.8533 743.24 86.6267 743.853 85L735.013 64.12H738.733L745.773 81.44L752.133 64.12H755.613L745.453 90.48C745.213 91.0933 744.853 91.6667 744.373 92.2C743.92 92.76 743.333 93.2 742.613 93.52C741.893 93.84 741.026 94 740.013 94C739.773 94 739.52 93.9867 739.253 93.96C739.013 93.9333 738.706 93.88 738.333 93.8V90.68ZM768.747 85.4C767.174 85.4 765.747 85.12 764.467 84.56C763.187 83.9733 762.081 83.1867 761.147 82.2C760.214 81.1867 759.494 80.0267 758.987 78.72C758.481 77.4133 758.227 76.04 758.227 74.6C758.227 73.1333 758.481 71.7467 758.987 70.44C759.494 69.1333 760.214 67.9867 761.147 67C762.081 65.9867 763.187 65.2 764.467 64.64C765.774 64.0533 767.201 63.76 768.747 63.76C770.321 63.76 771.747 64.0533 773.027 64.64C774.307 65.2 775.414 65.9867 776.347 67C777.307 67.9867 778.041 69.1333 778.547 70.44C779.054 71.7467 779.307 73.1333 779.307 74.6C779.307 76.04 779.054 77.4133 778.547 78.72C778.041 80.0267 777.321 81.1867 776.387 82.2C775.454 83.1867 774.334 83.9733 773.027 84.56C771.747 85.12 770.321 85.4 768.747 85.4ZM761.827 74.64C761.827 76.08 762.134 77.3867 762.747 78.56C763.387 79.7333 764.227 80.6667 765.267 81.36C766.307 82.0267 767.467 82.36 768.747 82.36C770.027 82.36 771.187 82.0133 772.227 81.32C773.294 80.6267 774.134 79.6933 774.747 78.52C775.387 77.32 775.707 76 775.707 74.56C775.707 73.12 775.387 71.8133 774.747 70.64C774.134 69.4667 773.294 68.5333 772.227 67.84C771.187 67.1467 770.027 66.8 768.747 66.8C767.467 66.8 766.307 67.16 765.267 67.88C764.227 68.5733 763.387 69.5067 762.747 70.68C762.134 71.8533 761.827 73.1733 761.827 74.64ZM784.573 76.64V64.12H788.093V75.96C788.093 78.0933 788.466 79.6933 789.213 80.76C789.959 81.8267 791.066 82.36 792.533 82.36C793.493 82.36 794.413 82.16 795.293 81.76C796.199 81.3333 797.013 80.7333 797.733 79.96C798.453 79.1867 799.013 78.2667 799.413 77.2V64.12H802.933V81C802.933 81.4267 803.013 81.7467 803.173 81.96C803.359 82.1467 803.653 82.2533 804.053 82.28V85C803.653 85.0533 803.333 85.08 803.093 85.08C802.879 85.1067 802.666 85.12 802.453 85.12C801.786 85.12 801.213 84.92 800.733 84.52C800.253 84.0933 799.999 83.5733 799.973 82.96L799.893 80.52C798.986 82.0667 797.759 83.2667 796.213 84.12C794.693 84.9733 793.026 85.4 791.213 85.4C789.026 85.4 787.373 84.6667 786.253 83.2C785.133 81.7067 784.573 79.52 784.573 76.64ZM809.716 85V80.52H812.676V85H809.716Z" fill="url(#paint0_linear_11_53)" shape-rendering="crispEdges"/>
</g>
<defs>
<filter id="filter0_d_11_53" x="0" y="0.399902" width="932.937" height="111.6" filterUnits="userSpaceOnUse" color-interpolation-filters="sRGB">
<feFlood flood-opacity="0" result="BackgroundImageFix"/>
<feColorMatrix in="SourceAlpha" type="matrix" values="0 0 0 0 0 0 0 0 0 0 0 0 0 0 0 0 0 0 127 0" result="hardAlpha"/>
<feOffset dx="8" dy="5"/>
<feGaussianBlur stdDeviation="6.5"/>
<feComposite in2="hardAlpha" operator="out"/>
<feColorMatrix type="matrix" values="0 0 0 0 0 0 0 0 0 0 0 0 0 0 0 0 0 0 0.25 0"/>
<feBlend mode="normal" in2="BackgroundImageFix" result="effect1_dropShadow_11_53"/>
<feBlend mode="normal" in="SourceGraphic" in2="effect1_dropShadow_11_53" result="shape"/>
</filter>
<linearGradient id="paint0_linear_11_53" x1="460.5" y1="-10" x2="460.5" y2="105" gradientUnits="userSpaceOnUse">
<stop offset="0.65625" stop-color="#0C0C0C"/>
<stop offset="1" stop-color="#5C1F2E" stop-opacity="0"/>
</linearGradient>
</defs>
</svg>
