<svg width="463" height="96" viewBox="0 0 463 96" fill="none" xmlns="http://www.w3.org/2000/svg">
<g filter="url(#filter0_d_11_52)">
<path d="M21.272 38.024V77H5.528V8.84H18.008L49.592 48.968V8.84H65.336V77H52.472L21.272 38.024ZM108.228 77.576C103.108 77.576 98.4678 76.616 94.3078 74.696C90.2118 72.712 86.6598 70.088 83.6518 66.824C80.7078 63.496 78.4358 59.784 76.8358 55.688C75.2358 51.528 74.4358 47.24 74.4358 42.824C74.4358 38.28 75.2678 33.96 76.9318 29.864C78.6598 25.768 81.0278 22.12 84.0358 18.92C87.1078 15.656 90.7238 13.096 94.8838 11.24C99.0438 9.384 103.588 8.456 108.516 8.456C113.572 8.456 118.148 9.448 122.244 11.432C126.404 13.352 129.956 15.976 132.9 19.304C135.908 22.632 138.212 26.376 139.812 30.536C141.412 34.632 142.212 38.824 142.212 43.112C142.212 47.656 141.38 51.976 139.716 56.072C138.052 60.168 135.684 63.848 132.612 67.112C129.54 70.312 125.924 72.872 121.764 74.792C117.668 76.648 113.156 77.576 108.228 77.576ZM90.4678 43.016C90.4678 45.64 90.8518 48.2 91.6198 50.696C92.3878 53.128 93.5078 55.304 94.9798 57.224C96.5158 59.144 98.4038 60.68 100.644 61.832C102.884 62.984 105.444 63.56 108.324 63.56C111.332 63.56 113.956 62.984 116.196 61.832C118.436 60.616 120.292 59.016 121.764 57.032C123.236 55.048 124.324 52.84 125.028 50.408C125.796 47.912 126.18 45.384 126.18 42.824C126.18 40.2 125.796 37.672 125.028 35.24C124.26 32.808 123.108 30.632 121.572 28.712C120.036 26.728 118.148 25.192 115.908 24.104C113.668 23.016 111.14 22.472 108.324 22.472C105.316 22.472 102.692 23.048 100.452 24.2C98.2758 25.352 96.4198 26.92 94.8838 28.904C93.4118 30.824 92.2918 33.032 91.5238 35.528C90.8198 37.96 90.4678 40.456 90.4678 43.016ZM189.46 38.024V77H173.716V8.84H186.196L217.78 48.968V8.84H233.524V77H220.66L189.46 38.024ZM263.743 8.84H280.735L304.159 77H288.031L282.751 61.736H261.535L256.351 77H240.223L263.743 8.84ZM280.159 50.888L272.191 24.68L264.031 50.888H280.159ZM364.632 77V36.392L349.944 65.96H341.304L326.616 36.392V77H310.872V8.84H327.96L345.624 44.456L363.384 8.84H380.376V77H364.632ZM441.37 63.176V77H393.466V8.84H440.506V22.664H409.21V35.912H436.09V48.68H409.21V63.176H441.37Z" fill="url(#paint0_linear_11_52)" shape-rendering="crispEdges"/>
</g>
<defs>
<filter id="filter0_d_11_52" x="0.52832" y="0.456055" width="461.841" height="95.1199" filterUnits="userSpaceOnUse" color-interpolation-filters="sRGB">
<feFlood flood-opacity="0" result="BackgroundImageFix"/>
<feColorMatrix in="SourceAlpha" type="matrix" values="0 0 0 0 0 0 0 0 0 0 0 0 0 0 0 0 0 0 127 0" result="hardAlpha"/>
<feOffset dx="8" dy="5"/>
<feGaussianBlur stdDeviation="6.5"/>
<feComposite in2="hardAlpha" operator="out"/>
<feColorMatrix type="matrix" values="0 0 0 0 0 0 0 0 0 0 0 0 0 0 0 0 0 0 0.25 0"/>
<feBlend mode="normal" in2="BackgroundImageFix" result="effect1_dropShadow_11_52"/>
<feBlend mode="normal" in="SourceGraphic" in2="effect1_dropShadow_11_52" result="shape"/>
</filter>
<linearGradient id="paint0_linear_11_52" x1="222" y1="-13" x2="222" y2="100" gradientUnits="userSpaceOnUse">
<stop offset="0.65625" stop-color="#0C0C0C"/>
<stop offset="1" stop-color="#5C1F2E" stop-opacity="0"/>
</linearGradient>
</defs>
</svg>
