<svg width="20" height="20" viewBox="0 0 20 20" fill="none" xmlns="http://www.w3.org/2000/svg">
<path d="M11.9938 1.99341C11.8612 1.99344 11.7316 2.03303 11.6216 2.1071C11.5116 2.18118 11.4262 2.28638 11.3763 2.40926C11.3264 2.53213 11.3142 2.6671 11.3414 2.7969C11.3686 2.9267 11.4339 3.04544 11.529 3.13794L11.5641 3.1731C10.2707 4.79934 8.66699 7.99992 8.66699 7.99992L6.75423 8.47778L6.47168 8.19523C6.40955 8.13137 6.33526 8.08061 6.25318 8.04594C6.1711 8.01128 6.08291 7.99341 5.99382 7.99341C5.86119 7.99344 5.73159 8.03303 5.62159 8.1071C5.51158 8.18118 5.42617 8.28638 5.37626 8.40926C5.32636 8.53213 5.31423 8.6671 5.34143 8.7969C5.36864 8.9267 5.43393 9.04544 5.52897 9.13794L10.8623 14.4713C10.9237 14.5353 10.9973 14.5863 11.0787 14.6215C11.1602 14.6567 11.2478 14.6753 11.3365 14.6762C11.4252 14.6771 11.5131 14.6603 11.5953 14.6268C11.6774 14.5933 11.752 14.5437 11.8147 14.481C11.8774 14.4182 11.927 14.3436 11.9605 14.2615C11.9941 14.1794 12.0109 14.0914 12.01 14.0027C12.0091 13.914 11.9905 13.8264 11.9553 13.745C11.9201 13.6636 11.869 13.59 11.805 13.5286L11.5225 13.246L12.0003 11.3333C12.0003 11.3333 15.2009 9.72953 16.8271 8.43612L16.8623 8.47127C16.9237 8.53526 16.9973 8.58634 17.0787 8.62153C17.1602 8.65672 17.2478 8.67531 17.3365 8.67621C17.4252 8.67712 17.5131 8.66031 17.5953 8.62679C17.6774 8.59326 17.752 8.54369 17.8147 8.48097C17.8774 8.41825 17.927 8.34364 17.9605 8.26152C17.9941 8.17941 18.0109 8.09142 18.01 8.00273C18.0091 7.91403 17.9905 7.82641 17.9553 7.74499C17.9201 7.66357 17.869 7.58999 17.805 7.52856L12.4717 2.19523C12.4096 2.13137 12.3353 2.0806 12.2532 2.04594C12.1711 2.01128 12.0829 1.99341 11.9938 1.99341ZM6.8623 12.1952L2.86882 16.1887L2.8623 16.1952C2.73727 16.3202 2.66702 16.4898 2.66699 16.6666C2.66699 16.8434 2.73723 17.013 2.86225 17.138C2.98728 17.263 3.15685 17.3333 3.33366 17.3333C3.51046 17.3332 3.68001 17.263 3.80501 17.1379L7.80501 13.1379L6.8623 12.1952Z" fill="#0D0F2B"/>
</svg>
