<svg width="40" height="40" viewBox="0 0 40 40" fill="none" xmlns="http://www.w3.org/2000/svg">
<path d="M19.9558 2.66673C19.7173 2.67479 19.4852 2.74673 19.2839 2.87506L4.61728 12.2084C4.37392 12.3634 4.18741 12.5932 4.08575 12.8633C3.98409 13.1333 3.97276 13.4291 4.05347 13.7061C4.13417 13.9832 4.30256 14.2265 4.53334 14.3998C4.76413 14.573 5.04487 14.6666 5.33343 14.6667V32.0001C5.33343 33.4734 6.52676 34.6667 8.00009 34.6667H12.0001V26.6433C11.5694 26.642 11.1467 26.4583 10.8907 26.073C10.4827 25.461 10.6485 24.632 11.2605 24.224L19.2605 18.8907C19.7085 18.592 20.2917 18.592 20.7397 18.8907L28.7397 24.224C29.3517 24.632 29.5149 25.4596 29.1069 26.073C28.8509 26.457 28.4308 26.6667 28.0001 26.6667V34.6667H32.0001C33.4734 34.6667 34.6668 33.4734 34.6668 32.0001V14.6667C34.9553 14.6666 35.2361 14.573 35.4668 14.3998C35.6976 14.2265 35.866 13.9832 35.9467 13.7061C36.0274 13.4291 36.0161 13.1333 35.9144 12.8633C35.8128 12.5932 35.6263 12.3634 35.3829 12.2084L20.7162 2.87506C20.4896 2.73056 20.2245 2.65794 19.9558 2.66673ZM20.0001 9.3334C21.4734 9.3334 22.6668 10.5267 22.6668 12.0001V14.6667H17.3334V12.0001C17.3334 10.5267 18.5268 9.3334 20.0001 9.3334ZM17.3334 26.6667V34.6667H22.6668V26.6667H17.3334Z" fill="#D74A2D"/>
</svg>
