<svg width="40" height="40" viewBox="0 0 40 40" fill="none" xmlns="http://www.w3.org/2000/svg">
<path d="M35.9714 4.02857C35.9714 4.02857 24 3.99992 14.6667 13.3333C14.2357 13.7642 13.8605 14.2333 13.5208 14.7187C11.8661 14.5864 9.33302 14.6296 8.03646 15.927C5.00979 18.9537 4 23.9999 4 23.9999L10.6667 23.0468V25.3333L14.6667 29.3333H16.9531L16 35.9999C16 35.9999 21.0462 34.9901 24.0729 31.9635C25.3703 30.6669 25.4136 28.1339 25.2812 26.4791C25.7666 26.1394 26.2357 25.7642 26.6667 25.3333C36 15.9999 35.9714 4.02857 35.9714 4.02857ZM25.3333 11.9999C26.8067 11.9999 28 13.1933 28 14.6666C28 16.1399 26.8067 17.3333 25.3333 17.3333C23.86 17.3333 22.6667 16.1399 22.6667 14.6666C22.6667 13.1933 23.86 11.9999 25.3333 11.9999ZM9.59896 26.6614C9.09229 26.7947 8.61215 27.0492 8.21615 27.4452C6.39481 29.2666 6.6849 33.3124 6.6849 33.3124C6.6849 33.3124 10.7041 33.6265 12.5495 31.7812C12.9455 31.3852 13.2 30.9024 13.3333 30.3958L12.724 29.7864C12.664 29.8717 12.6268 29.9708 12.5495 30.0468C11.2495 31.3468 9.29948 30.6978 9.29948 30.6978C9.29948 30.6978 8.64919 28.7478 9.95052 27.4478C10.0279 27.3705 10.123 27.3347 10.2083 27.2734L9.59896 26.6614Z" fill="#D74A2D"/>
</svg>
