<svg width="17" height="17" viewBox="0 0 17 17" fill="none" xmlns="http://www.w3.org/2000/svg">
<path d="M15.3206 0.993503C15.2958 0.994288 15.271 0.996462 15.2464 1.00001H11.3337C11.2453 0.998764 11.1576 1.01508 11.0756 1.04803C10.9937 1.08097 10.919 1.12988 10.8561 1.19191C10.7932 1.25394 10.7433 1.32785 10.7092 1.40936C10.6751 1.49086 10.6575 1.57833 10.6575 1.66668C10.6575 1.75503 10.6751 1.8425 10.7092 1.924C10.7433 2.00551 10.7932 2.07942 10.8561 2.14145C10.919 2.20348 10.9937 2.25239 11.0756 2.28533C11.1576 2.31828 11.2453 2.3346 11.3337 2.33335H13.7243L6.8623 9.19533C6.79832 9.25676 6.74724 9.33034 6.71205 9.41175C6.67686 9.49317 6.65827 9.5808 6.65736 9.66949C6.65646 9.75818 6.67327 9.84617 6.70679 9.92829C6.74032 10.0104 6.78989 10.085 6.85261 10.1477C6.91533 10.2104 6.98993 10.26 7.07205 10.2935C7.15417 10.3271 7.24215 10.3439 7.33085 10.343C7.41954 10.3421 7.50717 10.3235 7.58858 10.2883C7.67 10.2531 7.74358 10.202 7.80501 10.138L14.667 3.27606V5.66668C14.6657 5.75502 14.6821 5.84273 14.715 5.92471C14.7479 6.00669 14.7969 6.0813 14.8589 6.14421C14.9209 6.20713 14.9948 6.25709 15.0763 6.29118C15.1578 6.32528 15.2453 6.34284 15.3337 6.34284C15.422 6.34284 15.5095 6.32528 15.591 6.29118C15.6725 6.25709 15.7464 6.20713 15.8084 6.14421C15.8705 6.0813 15.9194 6.00669 15.9523 5.92471C15.9853 5.84273 16.0016 5.75502 16.0003 5.66668V1.75132C16.0136 1.65533 16.0058 1.55761 15.9775 1.46495C15.9491 1.37229 15.9009 1.28692 15.8362 1.21479C15.7715 1.14265 15.6919 1.08549 15.6028 1.04727C15.5138 1.00905 15.4175 0.990706 15.3206 0.993503ZM2.00033 3.66668C1.27162 3.66668 0.666992 4.2713 0.666992 5.00001V15C0.666992 15.7287 1.27162 16.3333 2.00033 16.3333H12.0003C12.729 16.3333 13.3337 15.7287 13.3337 15V8.33335V6.6146L12.0003 7.94793V9.66668V15H2.00033V5.00001H7.33366H8.66699H9.05241L10.3857 3.66668H8.66699H7.33366H2.00033Z" fill="#0D0F2B"/>
</svg>
