<svg width="16" height="16" viewBox="0 0 16 16" fill="none" xmlns="http://www.w3.org/2000/svg">
<path d="M13.3333 0C12.6261 0 11.9478 0.280951 11.4477 0.781048C10.9476 1.28115 10.6667 1.95942 10.6667 2.66667C10.6679 2.85411 10.6888 3.04091 10.7292 3.22396L4.67448 6.2513C4.42476 5.9638 4.11636 5.73312 3.77003 5.57478C3.4237 5.41644 3.04748 5.33411 2.66667 5.33333C1.95942 5.33333 1.28115 5.61428 0.781048 6.11438C0.280951 6.61448 0 7.29276 0 8C0 8.70724 0.280951 9.38552 0.781048 9.88562C1.28115 10.3857 1.95942 10.6667 2.66667 10.6667C3.0476 10.6662 3.42401 10.5842 3.77057 10.4261C4.11713 10.268 4.4258 10.0374 4.67578 9.75L10.7266 12.776C10.6871 12.9592 10.667 13.146 10.6667 13.3333C10.6667 14.0406 10.9476 14.7189 11.4477 15.219C11.9478 15.719 12.6261 16 13.3333 16C14.0406 16 14.7189 15.719 15.219 15.219C15.719 14.7189 16 14.0406 16 13.3333C16 12.6261 15.719 11.9478 15.219 11.4477C14.7189 10.9476 14.0406 10.6667 13.3333 10.6667C12.9524 10.6671 12.576 10.7491 12.2294 10.9073C11.8829 11.0654 11.5742 11.2959 11.3242 11.5833L5.27344 8.55729C5.31292 8.37415 5.333 8.18735 5.33333 8C5.33205 7.81299 5.3111 7.62664 5.27083 7.44401L11.3255 4.41667C11.5754 4.70393 11.8838 4.93437 12.2301 5.09248C12.5765 5.25059 12.9526 5.33272 13.3333 5.33333C14.0406 5.33333 14.7189 5.05238 15.219 4.55229C15.719 4.05219 16 3.37391 16 2.66667C16 1.95942 15.719 1.28115 15.219 0.781048C14.7189 0.280951 14.0406 0 13.3333 0Z" fill="#2082EA"/>
</svg>
