<svg width="18" height="18" viewBox="0 0 18 18" fill="none" xmlns="http://www.w3.org/2000/svg">
<path d="M16.9181 0.292495C16.8895 0.293398 16.861 0.295897 16.8327 0.299982H12.3331C12.2315 0.298545 12.1306 0.317314 12.0363 0.355198C11.9421 0.393082 11.8563 0.449325 11.7839 0.520659C11.7116 0.591993 11.6541 0.676995 11.6149 0.770726C11.5757 0.864456 11.5555 0.965046 11.5555 1.06665C11.5555 1.16825 11.5757 1.26884 11.6149 1.36257C11.6541 1.4563 11.7116 1.5413 11.7839 1.61264C11.8563 1.68397 11.9421 1.74022 12.0363 1.7781C12.1306 1.81598 12.2315 1.83475 12.3331 1.83332H15.0823L7.19102 9.72459C7.11743 9.79524 7.05869 9.87985 7.01822 9.97348C6.97775 10.0671 6.95637 10.1679 6.95533 10.2699C6.9543 10.3719 6.97362 10.4731 7.01218 10.5675C7.05073 10.6619 7.10774 10.7477 7.17987 10.8199C7.252 10.892 7.33779 10.949 7.43223 10.9875C7.52666 11.0261 7.62784 11.0454 7.72984 11.0444C7.83184 11.0434 7.9326 11.022 8.02624 10.9815C8.11987 10.941 8.20449 10.8823 8.27513 10.8087L16.1664 2.91743V5.66665C16.165 5.76824 16.1837 5.86911 16.2216 5.96338C16.2595 6.05766 16.3157 6.14346 16.3871 6.21581C16.4584 6.28816 16.5434 6.34561 16.6371 6.38483C16.7309 6.42404 16.8315 6.44423 16.9331 6.44423C17.0347 6.44423 17.1353 6.42404 17.229 6.38483C17.3227 6.34561 17.4077 6.28816 17.4791 6.21581C17.5504 6.14346 17.6066 6.05766 17.6445 5.96338C17.6824 5.86911 17.7012 5.76824 17.6997 5.66665V1.16398C17.715 1.0536 17.706 0.941216 17.6734 0.834657C17.6408 0.728099 17.5854 0.629924 17.511 0.54697C17.4366 0.464017 17.345 0.398277 17.2426 0.354328C17.1402 0.31038 17.0295 0.289279 16.9181 0.292495ZM1.59974 3.36665C0.761725 3.36665 0.0664062 4.06197 0.0664062 4.89998V16.4C0.0664062 17.238 0.761725 17.9333 1.59974 17.9333H13.0997C13.9378 17.9333 14.6331 17.238 14.6331 16.4V8.73332V6.75675L13.0997 8.29009V10.2666V16.4H1.59974V4.89998H7.73307H9.26641H9.70963L11.243 3.36665H9.26641H7.73307H1.59974Z" fill="#777777" fill-opacity="0.91"/>
</svg>
