<svg width="16" height="16" viewBox="0 0 16 16" fill="none" xmlns="http://www.w3.org/2000/svg">
<path d="M5.86615 1.06665C5.27681 1.06665 4.79948 1.54398 4.79948 2.13332V10.6666C4.79948 11.256 5.27681 11.7333 5.86615 11.7333H12.7995C13.3888 11.7333 13.8661 11.256 13.8661 10.6666V4.53332C13.8661 4.39198 13.8102 4.2565 13.7099 4.15623L10.7766 1.2229C10.6763 1.12263 10.5408 1.06665 10.3995 1.06665H5.86615ZM10.1328 2.08228L12.8505 4.79998H10.6661C10.3717 4.79998 10.1328 4.56105 10.1328 4.26665V2.08228ZM3.19948 3.73332C2.61015 3.73332 2.13281 4.21065 2.13281 4.79998V13.3333C2.13281 13.9226 2.61015 14.4 3.19948 14.4H10.1328C10.7221 14.4 11.1995 13.9226 11.1995 13.3333V12.8H5.86615C4.68961 12.8 3.73281 11.8432 3.73281 10.6666V3.73332H3.19948Z" fill="#738094"/>
</svg>
