<svg width="34" height="33" viewBox="0 0 34 33" fill="none" xmlns="http://www.w3.org/2000/svg">
<path d="M17.0002 32.2776C25.7954 32.2776 32.9252 25.1478 32.9252 16.3526C32.9252 7.55749 25.7954 0.427612 17.0002 0.427612C8.20507 0.427612 1.0752 7.55749 1.0752 16.3526C1.0752 25.1478 8.20507 32.2776 17.0002 32.2776Z" fill="#E45234" fill-opacity="0.69"/>
<path d="M10.6303 14.7601C12.3893 14.7601 13.8153 13.3342 13.8153 11.5751C13.8153 9.81611 12.3893 8.39014 10.6303 8.39014C8.87129 8.39014 7.44531 9.81611 7.44531 11.5751C7.44531 13.3342 8.87129 14.7601 10.6303 14.7601Z" fill="#E45234"/>
<path d="M18.5927 30.6852C9.80145 30.6852 2.6677 23.5514 2.6677 14.7601C2.6677 10.7626 4.14645 7.12264 6.5677 4.32764C3.20395 7.25264 1.0752 11.5426 1.0752 16.3526C1.0752 25.1439 8.20895 32.2777 17.0002 32.2777C21.8102 32.2777 26.1002 30.1489 29.0252 26.7852C26.2302 29.2064 22.5902 30.6852 18.5927 30.6852Z" fill="#E45234"/>
<path d="M17 32.6027C8.04625 32.6027 0.75 25.3064 0.75 16.3527C0.75 7.39891 8.03 0.102661 17 0.102661C25.9537 0.102661 33.25 7.38266 33.25 16.3527C33.25 25.3064 25.9537 32.6027 17 32.6027ZM17 0.736411C8.3875 0.736411 1.38375 7.74016 1.38375 16.3527C1.38375 24.9652 8.3875 31.9689 17 31.9689C25.6125 31.9689 32.6162 24.9652 32.6162 16.3527C32.6 7.74016 25.5962 0.736411 17 0.736411Z" fill="black"/>
<path d="M10.6301 15.0689C8.69637 15.0689 7.12012 13.4927 7.12012 11.5589C7.12012 9.6252 8.69637 8.04895 10.6301 8.04895C12.5639 8.04895 14.1401 9.6252 14.1401 11.5589C14.1401 12.2577 13.9289 12.9239 13.5551 13.5089L13.0189 13.1514C13.3276 12.6802 13.5064 12.1277 13.5064 11.5589C13.5064 9.9827 12.2226 8.69895 10.6464 8.69895C9.07012 8.69895 7.78637 9.9827 7.78637 11.5589C7.78637 13.1352 9.07012 14.4189 10.6464 14.4189C11.0851 14.4189 11.5076 14.3052 11.9301 14.1102L12.2226 14.6789C11.6864 14.9389 11.1664 15.0689 10.6301 15.0689Z" fill="black"/>
<path d="M21.7771 9.98261C22.6566 9.98261 23.3696 9.26962 23.3696 8.39011C23.3696 7.51059 22.6566 6.79761 21.7771 6.79761C20.8976 6.79761 20.1846 7.51059 20.1846 8.39011C20.1846 9.26962 20.8976 9.98261 21.7771 9.98261Z" fill="#E45234"/>
<path d="M21.7778 10.2914C20.7216 10.2914 19.8604 9.43017 19.8604 8.37392C19.8604 7.31767 20.7216 6.45642 21.7778 6.45642C22.8341 6.45642 23.6953 7.31767 23.6953 8.37392H23.0616C23.0616 7.67517 22.4928 7.10642 21.7941 7.10642C21.0953 7.10642 20.5266 7.67517 20.5266 8.37392C20.5266 9.07267 21.0953 9.64142 21.7941 9.64142V10.2914H21.7778Z" fill="black"/>
<path d="M23.1259 9.73896L22.6709 9.28396C23.1747 8.78021 23.1747 7.98396 22.6709 7.48021C22.1834 6.97646 21.3709 6.97646 20.8672 7.48021C20.3634 7.98396 20.3634 8.78021 20.8672 9.28396L20.4122 9.73896C19.6647 8.99146 19.6647 7.78896 20.4122 7.04146C21.1597 6.29396 22.3622 6.29396 23.1097 7.04146C23.8734 7.77271 23.8734 8.99146 23.1259 9.73896Z" fill="black"/>
<path d="M21.7771 22.7226C22.6566 22.7226 23.3696 22.0096 23.3696 21.1301C23.3696 20.2506 22.6566 19.5376 21.7771 19.5376C20.8976 19.5376 20.1846 20.2506 20.1846 21.1301C20.1846 22.0096 20.8976 22.7226 21.7771 22.7226Z" fill="#E45234"/>
<path d="M21.7778 23.0314C20.7216 23.0314 19.8604 22.1702 19.8604 21.1139C19.8604 20.0577 20.7216 19.1964 21.7778 19.1964V19.8302C21.0791 19.8302 20.5104 20.3989 20.5104 21.0977C20.5104 21.7964 21.0791 22.3652 21.7778 22.3652C22.4766 22.3652 23.0453 21.7964 23.0453 21.0977H23.6791C23.6791 22.1864 22.8341 23.0314 21.7778 23.0314Z" fill="black"/>
<path d="M21.7775 23.0314C21.29 23.0314 20.8025 22.8527 20.4288 22.4789C19.6813 21.7314 19.6813 20.5127 20.4288 19.7814C21.1763 19.034 22.3788 19.034 23.1263 19.7814L22.6713 20.2364C22.1675 19.7327 21.3713 19.7327 20.8675 20.2364C20.3638 20.7402 20.3638 21.5364 20.8675 22.0402C21.355 22.5439 22.1675 22.5439 22.6713 22.0402L23.1263 22.4952C22.7525 22.8527 22.265 23.0314 21.7775 23.0314Z" fill="black"/>
<path d="M28.9437 16.3526C29.3835 16.3526 29.74 15.9961 29.74 15.5564C29.74 15.1166 29.3835 14.7601 28.9437 14.7601C28.504 14.7601 28.1475 15.1166 28.1475 15.5564C28.1475 15.9961 28.504 16.3526 28.9437 16.3526Z" fill="#E45234"/>
<path d="M28.9435 16.6614C28.326 16.6614 27.8223 16.1577 27.8223 15.5402H28.456C28.456 15.8002 28.6673 16.0114 28.9273 16.0114C29.1873 16.0114 29.3985 15.8002 29.3985 15.5402C29.3985 15.2802 29.1873 15.0689 28.9273 15.0689V14.4352C29.5448 14.4352 30.0485 14.9389 30.0485 15.5564C30.0485 16.1739 29.561 16.6614 28.9435 16.6614Z" fill="black"/>
<path d="M14.6117 3.61264C15.0514 3.61264 15.4079 3.25615 15.4079 2.81639C15.4079 2.37663 15.0514 2.02014 14.6117 2.02014C14.1719 2.02014 13.8154 2.37663 13.8154 2.81639C13.8154 3.25615 14.1719 3.61264 14.6117 3.61264Z" fill="#E45234"/>
<path d="M14.6115 3.92146C13.994 3.92146 13.4902 3.41771 13.4902 2.80021C13.4902 2.18271 13.994 1.67896 14.6115 1.67896C15.229 1.67896 15.7327 2.18271 15.7327 2.80021C15.7327 3.41771 15.229 3.92146 14.6115 3.92146ZM14.6115 2.32896C14.3515 2.32896 14.1402 2.54021 14.1402 2.80021C14.1402 3.06021 14.3515 3.27146 14.6115 3.27146C14.8715 3.27146 15.0827 3.06021 15.0827 2.80021C15.0827 2.54021 14.8715 2.32896 14.6115 2.32896Z" fill="black"/>
<path d="M14.6117 19.5377C15.0514 19.5377 15.4079 19.1812 15.4079 18.7414C15.4079 18.3017 15.0514 17.9452 14.6117 17.9452C14.1719 17.9452 13.8154 18.3017 13.8154 18.7414C13.8154 19.1812 14.1719 19.5377 14.6117 19.5377Z" fill="#E45234"/>
<path d="M14.6109 19.8464V19.2126C14.8709 19.2126 15.0821 19.0014 15.0821 18.7414C15.0821 18.4814 14.8709 18.2701 14.6109 18.2701C14.3509 18.2701 14.1396 18.4814 14.1396 18.7414H13.5059C13.5059 18.1239 14.0096 17.6201 14.6271 17.6201C15.2446 17.6201 15.7484 18.1239 15.7484 18.7414C15.7484 19.3589 15.2284 19.8464 14.6109 19.8464Z" fill="black"/>
<path d="M6.64879 22.7226C7.08855 22.7226 7.44504 22.3661 7.44504 21.9264C7.44504 21.4866 7.08855 21.1301 6.64879 21.1301C6.20903 21.1301 5.85254 21.4866 5.85254 21.9264C5.85254 22.3661 6.20903 22.7226 6.64879 22.7226Z" fill="#E45234"/>
<path d="M6.64859 23.0314C6.03109 23.0314 5.52734 22.5277 5.52734 21.9102C5.52734 21.2927 6.03109 20.7889 6.64859 20.7889V21.4227C6.38859 21.4227 6.17734 21.6339 6.17734 21.8939C6.17734 22.1539 6.38859 22.3652 6.64859 22.3652C6.90859 22.3652 7.11984 22.1539 7.11984 21.8939H7.75359C7.75359 22.5439 7.24984 23.0314 6.64859 23.0314Z" fill="black"/>
<path d="M16.2042 29.0927C17.5234 29.0927 18.5929 28.0232 18.5929 26.7039C18.5929 25.3847 17.5234 24.3152 16.2042 24.3152C14.8849 24.3152 13.8154 25.3847 13.8154 26.7039C13.8154 28.0232 14.8849 29.0927 16.2042 29.0927Z" fill="#E45234"/>
<path d="M16.204 29.4177C14.709 29.4177 13.4902 28.199 13.4902 26.704C13.4902 25.209 14.709 23.9902 16.204 23.9902V24.624C15.0665 24.624 14.1402 25.5502 14.1402 26.6877C14.1402 27.8252 15.0665 28.7515 16.204 28.7515C17.3415 28.7515 18.2677 27.8252 18.2677 26.6877H18.9015C18.9015 28.199 17.699 29.4177 16.204 29.4177Z" fill="black"/>
<path d="M16.2033 29.4176C16.0246 29.4176 15.8458 29.4014 15.6671 29.3689C14.9521 29.2226 14.3508 28.8164 13.9446 28.2151C13.1158 26.9801 13.4571 25.2901 14.6921 24.4614C15.2933 24.0551 16.0083 23.9089 16.7233 24.0551C17.4383 24.2014 18.0396 24.6076 18.4458 25.2089L17.9096 25.5664C17.6008 25.1114 17.1296 24.7864 16.5933 24.6889C16.0571 24.5914 15.5046 24.6889 15.0333 24.9976C14.0908 25.6314 13.8308 26.9151 14.4646 27.8739C14.7733 28.3289 15.2446 28.6539 15.7808 28.7514C16.3171 28.8651 16.8696 28.7514 17.3408 28.4426L17.6983 28.9789C17.2433 29.2551 16.7396 29.4176 16.2033 29.4176Z" fill="black"/>
</svg>
