<svg width="32" height="32" viewBox="0 0 32 32" fill="none" xmlns="http://www.w3.org/2000/svg">
<path d="M15.625 31.3125C24.0819 31.3125 30.9375 24.4569 30.9375 16C30.9375 7.54315 24.0819 0.6875 15.625 0.6875C7.16815 0.6875 0.3125 7.54315 0.3125 16C0.3125 24.4569 7.16815 31.3125 15.625 31.3125Z" fill="#7092B9" fill-opacity="0.26"/>
<path d="M9.5 14.4687C11.1914 14.4687 12.5625 13.0976 12.5625 11.4062C12.5625 9.71488 11.1914 8.34375 9.5 8.34375C7.80863 8.34375 6.4375 9.71488 6.4375 11.4062C6.4375 13.0976 7.80863 14.4687 9.5 14.4687Z" fill="#8B9AB0"/>
<path d="M17.1563 29.7813C8.70313 29.7813 1.84375 22.9219 1.84375 14.4688C1.84375 10.625 3.26563 7.125 5.59375 4.4375C2.35938 7.25 0.3125 11.375 0.3125 16C0.3125 24.4531 7.17188 31.3125 15.625 31.3125C20.25 31.3125 24.375 29.2656 27.1875 26.0313C24.5 28.3594 21 29.7813 17.1563 29.7813Z" fill="#7E9FBC"/>
<path d="M15.625 31.625C7.01562 31.625 0 24.6094 0 16C0 7.39062 7 0.375 15.625 0.375C24.2344 0.375 31.25 7.375 31.25 16C31.25 24.6094 24.2344 31.625 15.625 31.625ZM15.625 0.984375C7.34375 0.984375 0.609375 7.71875 0.609375 16C0.609375 24.2812 7.34375 31.0156 15.625 31.0156C23.9062 31.0156 30.6406 24.2812 30.6406 16C30.625 7.71875 23.8906 0.984375 15.625 0.984375Z" fill="black"/>
<path d="M9.5 14.7656C7.64062 14.7656 6.125 13.25 6.125 11.3906C6.125 9.53125 7.64062 8.01562 9.5 8.01562C11.3594 8.01562 12.875 9.53125 12.875 11.3906C12.875 12.0625 12.6719 12.7031 12.3125 13.2656L11.7969 12.9219C12.0937 12.4687 12.2656 11.9375 12.2656 11.3906C12.2656 9.875 11.0312 8.64062 9.51562 8.64062C8 8.64062 6.76563 9.875 6.76563 11.3906C6.76563 12.9062 8 14.1406 9.51562 14.1406C9.9375 14.1406 10.3437 14.0312 10.75 13.8437L11.0312 14.3906C10.5156 14.6406 10.0156 14.7656 9.5 14.7656Z" fill="black"/>
<path d="M20.2187 9.875C21.0644 9.875 21.75 9.18943 21.75 8.34375C21.75 7.49806 21.0644 6.8125 20.2187 6.8125C19.3731 6.8125 18.6875 7.49806 18.6875 8.34375C18.6875 9.18943 19.3731 9.875 20.2187 9.875Z" fill="#8B9AB0"/>
<path d="M20.2187 10.1719C19.2031 10.1719 18.375 9.34375 18.375 8.32812C18.375 7.3125 19.2031 6.48438 20.2187 6.48438C21.2344 6.48438 22.0625 7.3125 22.0625 8.32812H21.4531C21.4531 7.65625 20.9062 7.10937 20.2344 7.10937C19.5625 7.10937 19.0156 7.65625 19.0156 8.32812C19.0156 9 19.5625 9.54687 20.2344 9.54687V10.1719H20.2187Z" fill="black"/>
<path d="M21.5156 9.64062L21.0781 9.20312C21.5625 8.71875 21.5625 7.95312 21.0781 7.46875C20.6094 6.98438 19.8281 6.98438 19.3437 7.46875C18.8594 7.95312 18.8594 8.71875 19.3437 9.20312L18.9062 9.64062C18.1875 8.92187 18.1875 7.76562 18.9062 7.04687C19.625 6.32813 20.7812 6.32813 21.5 7.04687C22.2344 7.75 22.2344 8.92187 21.5156 9.64062Z" fill="black"/>
<path d="M20.2187 22.125C21.0644 22.125 21.75 21.4394 21.75 20.5937C21.75 19.7481 21.0644 19.0625 20.2187 19.0625C19.3731 19.0625 18.6875 19.7481 18.6875 20.5937C18.6875 21.4394 19.3731 22.125 20.2187 22.125Z" fill="#8B9AB0"/>
<path d="M20.2187 22.4219C19.2031 22.4219 18.375 21.5938 18.375 20.5781C18.375 19.5625 19.2031 18.7344 20.2187 18.7344V19.3437C19.5469 19.3437 19 19.8906 19 20.5625C19 21.2344 19.5469 21.7812 20.2187 21.7812C20.8906 21.7812 21.4375 21.2344 21.4375 20.5625H22.0469C22.0469 21.6094 21.2344 22.4219 20.2187 22.4219Z" fill="black"/>
<path d="M20.2187 22.4219C19.75 22.4219 19.2812 22.25 18.9219 21.8906C18.2031 21.1719 18.2031 20 18.9219 19.2969C19.6406 18.5781 20.7969 18.5781 21.5156 19.2969L21.0781 19.7344C20.5937 19.25 19.8281 19.25 19.3437 19.7344C18.8594 20.2187 18.8594 20.9844 19.3437 21.4687C19.8125 21.9531 20.5937 21.9531 21.0781 21.4687L21.5156 21.9062C21.1562 22.25 20.6875 22.4219 20.2187 22.4219Z" fill="black"/>
<path d="M27.1094 16C27.5322 16 27.875 15.6572 27.875 15.2344C27.875 14.8115 27.5322 14.4688 27.1094 14.4688C26.6865 14.4688 26.3438 14.8115 26.3438 15.2344C26.3438 15.6572 26.6865 16 27.1094 16Z" fill="#8B9AB0"/>
<path d="M27.1094 16.2969C26.5156 16.2969 26.0312 15.8125 26.0312 15.2187H26.6406C26.6406 15.4687 26.8437 15.6719 27.0937 15.6719C27.3437 15.6719 27.5469 15.4687 27.5469 15.2187C27.5469 14.9688 27.3437 14.7656 27.0937 14.7656V14.1562C27.6875 14.1562 28.1719 14.6406 28.1719 15.2344C28.1719 15.8281 27.7031 16.2969 27.1094 16.2969Z" fill="black"/>
<path d="M13.3281 3.75C13.751 3.75 14.0937 3.40722 14.0937 2.98437C14.0937 2.56153 13.751 2.21875 13.3281 2.21875C12.9053 2.21875 12.5625 2.56153 12.5625 2.98437C12.5625 3.40722 12.9053 3.75 13.3281 3.75Z" fill="#8B9AB0"/>
<path d="M13.3281 4.04688C12.7344 4.04688 12.25 3.5625 12.25 2.96875C12.25 2.375 12.7344 1.89062 13.3281 1.89062C13.9219 1.89062 14.4063 2.375 14.4063 2.96875C14.4063 3.5625 13.9219 4.04688 13.3281 4.04688ZM13.3281 2.51563C13.0781 2.51563 12.875 2.71875 12.875 2.96875C12.875 3.21875 13.0781 3.42188 13.3281 3.42188C13.5781 3.42188 13.7813 3.21875 13.7813 2.96875C13.7813 2.71875 13.5781 2.51563 13.3281 2.51563Z" fill="black"/>
<path d="M13.3281 19.0625C13.751 19.0625 14.0937 18.7197 14.0937 18.2969C14.0937 17.874 13.751 17.5312 13.3281 17.5312C12.9053 17.5312 12.5625 17.874 12.5625 18.2969C12.5625 18.7197 12.9053 19.0625 13.3281 19.0625Z" fill="#8B9AB0"/>
<path d="M13.3281 19.3594V18.75C13.5781 18.75 13.7813 18.5469 13.7813 18.2969C13.7813 18.0469 13.5781 17.8437 13.3281 17.8437C13.0781 17.8437 12.875 18.0469 12.875 18.2969H12.2656C12.2656 17.7031 12.75 17.2188 13.3437 17.2188C13.9375 17.2188 14.4219 17.7031 14.4219 18.2969C14.4219 18.8906 13.9219 19.3594 13.3281 19.3594Z" fill="black"/>
<path d="M5.67188 22.125C6.09472 22.125 6.4375 21.7822 6.4375 21.3594C6.4375 20.9365 6.09472 20.5938 5.67188 20.5938C5.24903 20.5938 4.90625 20.9365 4.90625 21.3594C4.90625 21.7822 5.24903 22.125 5.67188 22.125Z" fill="#8B9AB0"/>
<path d="M5.67187 22.4219C5.07812 22.4219 4.59375 21.9375 4.59375 21.3437C4.59375 20.75 5.07812 20.2656 5.67187 20.2656V20.875C5.42187 20.875 5.21875 21.0781 5.21875 21.3281C5.21875 21.5781 5.42187 21.7813 5.67187 21.7813C5.92187 21.7813 6.125 21.5781 6.125 21.3281H6.73437C6.73437 21.9531 6.25 22.4219 5.67187 22.4219Z" fill="black"/>
<path d="M14.8594 28.25C16.1279 28.25 17.1562 27.2216 17.1562 25.9531C17.1562 24.6846 16.1279 23.6562 14.8594 23.6562C13.5908 23.6562 12.5625 24.6846 12.5625 25.9531C12.5625 27.2216 13.5908 28.25 14.8594 28.25Z" fill="#8B9AB0"/>
<path d="M14.8594 28.5625C13.4219 28.5625 12.25 27.3906 12.25 25.9531C12.25 24.5156 13.4219 23.3438 14.8594 23.3438V23.9531C13.7656 23.9531 12.875 24.8438 12.875 25.9375C12.875 27.0313 13.7656 27.9219 14.8594 27.9219C15.9531 27.9219 16.8438 27.0313 16.8438 25.9375H17.4531C17.4531 27.3906 16.2969 28.5625 14.8594 28.5625Z" fill="black"/>
<path d="M14.8598 28.5625C14.6879 28.5625 14.516 28.5469 14.3442 28.5156C13.6567 28.375 13.0785 27.9844 12.6879 27.4063C11.891 26.2188 12.2192 24.5938 13.4067 23.7969C13.9848 23.4063 14.6723 23.2656 15.3598 23.4063C16.0473 23.5469 16.6254 23.9375 17.016 24.5156L16.5004 24.8594C16.2035 24.4219 15.7504 24.1094 15.2348 24.0156C14.7191 23.9219 14.1879 24.0156 13.7348 24.3125C12.8285 24.9219 12.5785 26.1563 13.1879 27.0781C13.4848 27.5156 13.9379 27.8281 14.4535 27.9219C14.9691 28.0313 15.5004 27.9219 15.9535 27.625L16.2973 28.1406C15.8598 28.4063 15.3754 28.5625 14.8598 28.5625Z" fill="black"/>
</svg>
