<svg width="16" height="18" viewBox="0 0 16 18" fill="none" xmlns="http://www.w3.org/2000/svg">
<path d="M8.00008 0.333252C4.66675 0.333252 0.666748 2.99992 0.666748 7.66659V10.3333V10.9999C0.666748 12.011 1.10955 12.731 1.56128 13.1262C1.83672 13.3672 1.95201 13.371 2.1368 13.4439C2.37902 14.0699 3.92742 17.6666 8.00008 17.6666C8.0228 17.6666 8.04391 17.6642 8.06649 17.664C8.06822 17.664 8.06996 17.664 8.0717 17.664C9.59861 17.6465 10.8163 17.0859 11.7488 16.3333H8.00008C4.44453 16.3333 3.29956 12.789 3.29956 12.789L3.18368 12.4413L2.82821 12.3528C2.82821 12.3528 2.65382 12.3117 2.43888 12.1236C2.22395 11.9355 2.00008 11.6555 2.00008 10.9999V10.3333H2.66675C2.66675 5.66659 9.33341 8.99992 11.3334 4.33325C11.3334 4.33325 13.3334 6.17325 13.3334 10.3333V12.3333H13.879C13.6059 13.1113 12.8766 13.6666 12.0001 13.6666H9.27222C9.13442 13.2791 8.768 12.9999 8.33341 12.9999H7.66675C7.11475 12.9999 6.66675 13.4479 6.66675 13.9999C6.66675 14.5519 7.11475 14.9999 7.66675 14.9999H8.33341C8.39307 14.9999 8.4511 14.9917 8.50789 14.9817C8.55992 14.9941 8.61326 15.0002 8.66675 14.9999H12.0001C13.661 14.9999 15.0445 13.7668 15.2904 12.1718C15.711 11.9476 16.0001 11.51 16.0001 10.9999V10.3333C16.0001 9.84062 15.7305 9.41566 15.3334 9.18481V7.66659C15.3334 4.99992 14.0001 1.66659 11.3334 1.66659C11.3334 1.66659 10.6667 0.333252 8.00008 0.333252Z" fill="#0D0F2B"/>
</svg>
