<svg width="18" height="16" viewBox="0 0 18 16" fill="none" xmlns="http://www.w3.org/2000/svg">
<path d="M17.667 2.62461C17.029 2.90794 16.3437 3.09861 15.6243 3.18461C16.359 2.74461 16.9223 2.04794 17.1877 1.21728C16.501 1.62461 15.7397 1.92061 14.929 2.08061C14.2803 1.38928 13.3563 0.957275 12.3337 0.957275C10.3697 0.957275 8.77768 2.54994 8.77768 4.51328C8.77768 4.79194 8.80968 5.06394 8.86967 5.32328C5.91434 5.17528 3.29434 3.75928 1.53967 1.60728C1.23434 2.13261 1.05901 2.74328 1.05901 3.39594C1.05901 4.62928 1.68634 5.71794 2.64034 6.35528C2.05767 6.33661 1.50901 6.17661 1.02967 5.91061C1.02967 5.92594 1.02967 5.93994 1.02967 5.95528C1.02967 7.67861 2.25501 9.11594 3.88234 9.44194C3.58434 9.52328 3.26967 9.56661 2.94501 9.56661C2.71634 9.56661 2.49301 9.54394 2.27634 9.50327C2.72901 10.9159 4.04234 11.9446 5.59834 11.9733C4.38167 12.9273 2.84834 13.4959 1.18167 13.4959C0.895008 13.4959 0.611674 13.4793 0.333008 13.4459C1.90701 14.4546 3.77567 15.0433 5.78434 15.0433C12.3257 15.0433 15.9017 9.62461 15.9017 4.92528C15.9017 4.77128 15.8983 4.61794 15.8917 4.46528C16.587 3.96328 17.1903 3.33728 17.667 2.62461Z" fill="#FF507D"/>
</svg>
