<svg width="20" height="20" viewBox="0 0 20 20" fill="none" xmlns="http://www.w3.org/2000/svg">
<path d="M4.66699 2.66669C3.57035 2.66669 2.66699 3.57005 2.66699 4.66669V15.3334C2.66699 16.438 3.56233 17.3334 4.66699 17.3334H16.0003C16.737 17.3334 17.3337 16.7367 17.3337 16V6.66669C17.3337 5.93003 16.737 5.33336 16.0003 5.33336H10.667H4.66699C4.29031 5.33336 4.00033 5.04338 4.00033 4.66669C4.00033 4.29001 4.29031 4.00003 4.66699 4.00003H14.667C14.7553 4.00128 14.843 3.98495 14.925 3.95201C15.007 3.91907 15.0816 3.87016 15.1445 3.80813C15.2074 3.7461 15.2574 3.67219 15.2915 3.59068C15.3256 3.50918 15.3432 3.42171 15.3432 3.33336C15.3432 3.24501 15.3256 3.15754 15.2915 3.07604C15.2574 2.99453 15.2074 2.92062 15.1445 2.85859C15.0816 2.79656 15.007 2.74765 14.925 2.71471C14.843 2.68176 14.7553 2.66544 14.667 2.66669H4.66699ZM14.667 10C15.4037 10 16.0003 10.5967 16.0003 11.3334C16.0003 12.07 15.4037 12.6667 14.667 12.6667C13.9303 12.6667 13.3337 12.07 13.3337 11.3334C13.3337 10.5967 13.9303 10 14.667 10Z" fill="#0D0F2B"/>
</svg>
