<svg width="334" height="52" viewBox="0 0 334 52" fill="none" xmlns="http://www.w3.org/2000/svg">
<path d="M250.045 22.8617C221.205 22.0631 94.5638 37.4196 68.4831 48.3605C68.5053 48.8214 68.8059 48.8346 69.1689 48.7898C72.2107 48.4141 124.262 38.9361 162.084 34.761C174.338 33.4083 187.728 32.1894 200.325 30.4933C212.923 28.7971 250.045 22.8617 250.045 22.8617Z" fill="#D74A2D"/>
<path d="M332.405 5.13177C332.405 5.13177 332.675 5.21134 332.366 5.68797C332.191 5.75822 331.521 6.09767 329.822 6.73279C327.353 7.95882 226.721 10.2613 168.825 17.2575L1.91341 36.1931C0.369525 36.3569 1.47755 35.4287 1.47755 35.4287C22.7462 29.6843 44.5455 23.6332 102.847 17.3947C142.776 12.2629 217.228 5.61419 232.497 5.12839C255.26 4.04523 303.844 3.98034 332.405 5.13177Z" fill="#D74A2D"/>
</svg>
