<svg width="16" height="16" viewBox="0 0 16 16" fill="none" xmlns="http://www.w3.org/2000/svg">
<g clip-path="url(#clip0_211_52)">
<path d="M7.83538 16H7.80098C3.49957 16 0 12.4191 0 8.01761V7.98239C0 3.58095 3.49957 0 7.80098 0H7.83538C12.1368 0 15.6364 3.58095 15.6364 7.98239V8.01761C15.6364 12.4191 12.1368 16 7.83538 16ZM7.80098 0.541584C3.7912 0.541584 0.529275 3.87936 0.529275 7.98239V8.01761C0.529275 12.1206 3.7912 15.4584 7.80098 15.4584H7.83538C11.8452 15.4584 15.1071 12.1206 15.1071 8.01761V7.98239C15.1071 3.87936 11.8452 0.541584 7.83538 0.541584H7.80098Z" fill="#131316"/>
<path d="M3.32859 3.77051L6.81227 8.53644L3.30688 12.4115H4.09604L7.1653 9.019L9.64495 12.4115H12.33L8.65044 7.37746L11.9134 3.77051H11.1243L8.29794 6.89491L6.01413 3.77051H3.32911H3.32859ZM4.48875 4.36518H5.72197L11.1687 11.8168H9.93552L4.48875 4.36518Z" fill="#131316"/>
</g>
<defs>
<clipPath id="clip0_211_52">
<rect width="15.6364" height="16" fill="white"/>
</clipPath>
</defs>
</svg>
