<svg xmlns="http://www.w3.org/2000/svg" width="60" height="60" viewBox="0 0 60 60" fill="none">
<path d="M30.066 60H29.934C13.4285 60 0 46.5715 0 30.066V29.934C0 13.4285 13.4285 0 29.934 0H30.066C46.5714 0 60 13.4285 60 29.934V30.066C60 46.5715 46.5714 60 30.066 60ZM29.934 2.03094C14.5476 2.03094 2.03094 14.5476 2.03094 29.934V30.066C2.03094 45.4524 14.5476 57.9691 29.934 57.9691H30.066C45.4524 57.9691 57.9691 45.4524 57.9691 30.066V29.934C57.9691 14.5476 45.4524 2.03094 30.066 2.03094H29.934Z" fill="#F5F5F5"/>
<path d="M44.5059 16.6922C41.8372 15.4676 38.9777 14.5659 35.9861 14.05C35.9312 14.0398 35.8764 14.0642 35.85 14.115C35.4824 14.769 35.0742 15.624 34.7898 16.2942C31.5728 15.8129 28.3721 15.8129 25.2201 16.2942C24.9337 15.6077 24.5113 14.769 24.1416 14.115C24.1132 14.0663 24.0584 14.0419 24.0056 14.05C21.016 14.5659 18.1545 15.4676 15.4858 16.6922C15.4635 16.7024 15.4432 16.7186 15.4289 16.741C10.0023 24.8485 8.51558 32.757 9.24469 40.568C9.24875 40.6066 9.26906 40.6431 9.29953 40.6655C12.8801 43.2955 16.349 44.8918 19.7528 45.95C19.8076 45.9662 19.8645 45.9459 19.899 45.9012C20.7033 44.8025 21.4222 43.6428 22.0376 42.4222C22.0742 42.3511 22.0376 42.2658 21.9645 42.2374C20.8251 41.8048 19.7426 41.2788 18.6987 40.6817C18.6154 40.633 18.6094 40.5152 18.6845 40.4583C18.9039 40.2938 19.1232 40.1232 19.3324 39.9506C19.371 39.9181 19.4238 39.912 19.4684 39.9323C26.3188 43.0599 33.7358 43.0599 40.5049 39.9323C40.5496 39.9099 40.6024 39.9181 40.641 39.9485C40.8502 40.1212 41.0695 40.2938 41.2909 40.4583C41.366 40.5152 41.362 40.633 41.2787 40.6817C40.2369 41.291 39.1523 41.8068 38.0109 42.2374C37.9358 42.2658 37.9033 42.3511 37.9398 42.4242C38.5694 43.6428 39.2863 44.8004 40.0764 45.9012C40.1089 45.9479 40.1678 45.9682 40.2226 45.952C43.6427 44.8939 47.1115 43.2975 50.6921 40.6675C50.7226 40.6451 50.7429 40.6086 50.7469 40.572C51.6202 31.5425 49.2847 23.699 44.5587 16.7451C44.5465 16.7227 44.5282 16.7044 44.5038 16.6943L44.5059 16.6922ZM23.0571 35.8115C20.9937 35.8115 19.2958 33.9187 19.2958 31.5933C19.2958 29.2678 20.9632 27.375 23.0571 27.375C25.151 27.375 26.8529 29.2861 26.8184 31.5933C26.8184 33.9187 25.151 35.8115 23.0571 35.8115ZM36.967 35.8115C34.9036 35.8115 33.2057 33.9187 33.2057 31.5933C33.2057 29.2678 34.8731 27.375 36.967 27.375C39.0609 27.375 40.7628 29.2861 40.7283 31.5933C40.7283 33.9187 39.0792 35.8115 36.967 35.8115Z" fill="#F5F5F5"/>
</svg>