<svg xmlns="http://www.w3.org/2000/svg" width="60" height="60" viewBox="0 0 60 60" fill="none">
<rect x="1" y="1" width="58" height="58" rx="29" stroke="#F5F5F5" stroke-width="2"/>
<path d="M18.7333 16C16.7985 16 14.8827 16.3621 13.0951 17.0657C11.3076 17.7693 9.68341 18.8005 8.31529 20.1005C6.94718 21.4005 5.86193 22.9439 5.12151 24.6424C4.38109 26.341 4 28.1615 4 30C4 31.8385 4.38109 33.659 5.12151 35.3576C5.86193 37.0561 6.94718 38.5995 8.31529 39.8995C9.68341 41.1995 11.3076 42.2307 13.0951 42.9343C14.8827 43.6379 16.7985 44 18.7333 44C20.6681 44 22.584 43.6379 24.3715 42.9343C26.1591 42.2307 27.7833 41.1995 29.1514 39.8995C30.5195 38.5995 31.6047 37.0561 32.3452 35.3576C33.0856 33.659 33.4667 31.8385 33.4667 30C33.4667 28.1615 33.0856 26.341 32.3452 24.6424C31.6047 22.9439 30.5195 21.4005 29.1514 20.1005C27.7833 18.8005 26.1591 17.7693 24.3715 17.0657C22.584 16.3621 20.6681 16 18.7333 16ZM42.1333 17.6471C41.2228 17.6471 40.3213 17.9666 39.4801 18.5874C38.6389 19.2082 37.8745 20.1181 37.2307 21.2652C36.5869 22.4122 36.0762 23.774 35.7278 25.2727C35.3793 26.7715 35.2 28.3778 35.2 30C35.2 31.6222 35.3793 33.2285 35.7278 34.7273C36.0762 36.226 36.5869 37.5878 37.2307 38.7348C37.8745 39.8819 38.6389 40.7918 39.4801 41.4126C40.3213 42.0334 41.2228 42.3529 42.1333 42.3529C43.0438 42.3529 43.9454 42.0334 44.7866 41.4126C45.6278 40.7918 46.3921 39.8819 47.0359 38.7348C47.6798 37.5878 48.1905 36.226 48.5389 34.7273C48.8873 33.2285 49.0667 31.6222 49.0667 30C49.0667 28.3778 48.8873 26.7715 48.5389 25.2727C48.1905 23.774 47.6798 22.4122 47.0359 21.2652C46.3921 20.1181 45.6278 19.2082 44.7866 18.5874C43.9454 17.9666 43.0438 17.6471 42.1333 17.6471ZM53.4 19.2941C52.7104 19.2941 52.0491 20.4221 51.5615 22.4298C51.0739 24.4375 50.8 27.1606 50.8 30C50.8 32.8394 51.0739 35.5625 51.5615 37.5702C52.0491 39.5779 52.7104 40.7059 53.4 40.7059C54.0896 40.7059 54.7509 39.5779 55.2385 37.5702C55.7261 35.5625 56 32.8394 56 30C56 27.1606 55.7261 24.4375 55.2385 22.4298C54.7509 20.4221 54.0896 19.2941 53.4 19.2941Z" fill="#F5F5F5"/>
</svg>