<svg xmlns="http://www.w3.org/2000/svg" width="60" height="60" viewBox="0 0 60 60" fill="none">
<path d="M30.066 60H29.934C13.4285 60 0 46.5715 0 30.066V29.934C0 13.4285 13.4285 0 29.934 0H30.066C46.5715 0 60 13.4285 60 29.934V30.066C60 46.5715 46.5715 60 30.066 60ZM29.934 2.03094C14.5476 2.03094 2.03094 14.5476 2.03094 29.934V30.066C2.03094 45.4524 14.5476 57.9691 29.934 57.9691H30.066C45.4524 57.9691 57.9691 45.4524 57.9691 30.066V29.934C57.9691 14.5476 45.4524 2.03094 30.066 2.03094H29.934Z" fill="#F5F5F5"/>
<path d="M11.9947 29.0099C12.0759 28.9693 12.1572 28.9307 12.2364 28.8942C13.6134 28.2564 15.0086 27.6593 16.4019 27.0623C16.477 27.0623 16.6029 26.9749 16.674 26.9465C16.7816 26.8998 16.8893 26.8551 16.9969 26.8084C17.2041 26.719 17.4112 26.6317 17.6164 26.5423C18.0307 26.3656 18.4429 26.189 18.8572 26.0123C19.6838 25.6589 20.5104 25.3055 21.337 24.9501C22.9902 24.2433 24.6454 23.5345 26.2986 22.8277C27.9518 22.121 29.607 21.4122 31.2602 20.7054C32.9134 19.9986 34.5686 19.2898 36.2218 18.5831C37.8749 17.8763 39.5302 17.1675 41.1834 16.4608C41.551 16.3023 41.949 16.0668 42.343 15.9977C42.6741 15.9388 42.997 15.8251 43.33 15.7621C43.9617 15.6423 44.6583 15.5936 45.2635 15.8555C45.4727 15.9469 45.6656 16.0749 45.8261 16.2353C46.5938 16.9949 46.4861 18.2419 46.3236 19.3102C45.1924 26.7556 44.0612 34.203 42.9279 41.6485C42.7736 42.67 42.5623 43.7911 41.7561 44.4369C41.0737 44.9833 40.1029 45.0442 39.26 44.8126C38.4172 44.5791 37.6739 44.0896 36.9448 43.6083C33.9207 41.6058 30.8946 39.6033 27.8706 37.6008C27.1516 37.1255 26.3514 36.5041 26.3596 35.6409C26.3636 35.121 26.6743 34.6579 26.9911 34.2457C29.6192 30.8174 33.4109 28.4616 36.2319 25.1918C36.63 24.7307 36.9428 23.8981 36.3964 23.632C36.0715 23.4736 35.6978 23.6888 35.4012 23.894C31.6724 26.4834 27.9457 29.0749 24.2169 31.6643C23.0004 32.5092 21.7249 33.3784 20.2586 33.5856C18.9466 33.7724 17.6265 33.4069 16.3572 33.0332C15.293 32.7204 14.2308 32.3995 13.1726 32.0685C12.6101 31.8938 12.0292 31.705 11.5946 31.3089C11.16 30.9129 10.9102 30.2468 11.1722 29.7187C11.3367 29.3877 11.6556 29.1785 11.9907 29.0079L11.9947 29.0099Z" fill="#F5F5F5"/>
</svg>