<svg xmlns="http://www.w3.org/2000/svg" width="60" height="60" viewBox="0 0 60 60" fill="none">
<path d="M30.066 60H29.934C13.4286 60 0 46.5715 0 30.066V29.934C0 13.4285 13.4286 0 29.934 0H30.066C46.5714 0 60 13.4285 60 29.934V30.066C60 46.5715 46.5714 60 30.066 60ZM29.934 2.03094C14.5476 2.03094 2.03094 14.5476 2.03094 29.934V30.066C2.03094 45.4524 14.5476 57.9691 29.934 57.9691H30.066C45.4524 57.9691 57.9691 45.4524 57.9691 30.066V29.934C57.9691 14.5476 45.4524 2.03094 30.066 2.03094H29.934Z" fill="#F5F5F5"/>
<path d="M44.0124 21.9869V27.4603C43.0558 27.3669 41.8129 27.1496 40.4379 26.6459C38.6426 25.9879 37.3062 25.0882 36.4309 24.3916V35.4541L36.4086 35.4195C36.4228 35.6389 36.4309 35.8623 36.4309 36.0877C36.4309 41.5814 31.9608 46.0536 26.4651 46.0536C20.9694 46.0536 16.4993 41.5814 16.4993 36.0877C16.4993 30.594 20.9694 26.1199 26.4651 26.1199C27.0033 26.1199 27.5313 26.1625 28.0472 26.2458V31.64C27.5516 31.4633 27.0195 31.3678 26.4651 31.3678C23.8634 31.3678 21.7452 33.4841 21.7452 36.0877C21.7452 38.6914 23.8634 40.8076 26.4651 40.8076C29.0667 40.8076 31.185 38.6894 31.185 36.0877C31.185 35.9903 31.1829 35.8928 31.1769 35.7953V14.2978H36.6462C36.6665 14.7608 36.6848 15.228 36.7051 15.691C36.7416 16.6029 37.0666 17.4783 37.6332 18.1952C38.2973 19.038 39.2783 20.0169 40.6552 20.7988C41.9449 21.5279 43.1553 21.8428 44.0124 21.991V21.9869Z" fill="#F5F5F5"/>
</svg>