<svg width="60" height="60" viewBox="0 0 60 60" fill="none" xmlns="http://www.w3.org/2000/svg">
<path d="M30.066 60H29.934C13.4286 60 0 46.5715 0 30.066V29.934C0 13.4285 13.4286 0 29.934 0H30.066C46.5714 0 60 13.4285 60 29.934V30.066C60 46.5715 46.5714 60 30.066 60ZM29.934 2.03094C14.5476 2.03094 2.03094 14.5476 2.03094 29.934V30.066C2.03094 45.4524 14.5476 57.9691 29.934 57.9691H30.066C45.4524 57.9691 57.9691 45.4524 57.9691 30.066V29.934C57.9691 14.5476 45.4524 2.03094 30.066 2.03094H29.934Z" fill="#F5F5F5"/>
<path d="M12.7725 14.1394L26.1401 32.0117L12.6892 46.543H15.7173L27.4948 33.8213L37.0097 46.543H47.3126L33.1936 27.6655L45.7143 14.1394H42.6862L31.8409 25.8559L23.0775 14.1394H12.7745H12.7725ZM17.2243 16.3694H21.9564L42.8568 44.3131H38.1247L17.2243 16.3694Z" fill="#F5F5F5"/>
</svg>
