<svg width="20" height="20" viewBox="0 0 20 20" fill="none" xmlns="http://www.w3.org/2000/svg">
<path d="M8.59147 11.4965L5.87647 14.2111C4.88886 15.1984 3.21108 15.1282 2.13687 14.0541C1.06252 12.9795 0.991857 11.3025 1.97969 10.3141L5.05589 7.23812C6.04364 6.25039 7.72128 6.32105 8.79563 7.39508C9.25302 7.85239 9.5265 8.41874 9.61571 8.99498C10.0138 8.95338 10.3891 8.79037 10.6813 8.4984L10.7946 8.3851C10.6131 7.69565 10.2516 7.0354 9.70325 6.48741C8.12825 4.91241 5.63604 4.84197 4.14786 6.33045L1.07184 9.40647C-0.416649 10.8945 -0.346029 13.387 1.22888 14.9621C2.80375 16.5369 5.29597 16.6073 6.78445 15.119L9.86048 12.043C10.0347 11.8689 10.186 11.6796 10.3176 11.4804C9.75336 11.5964 9.16731 11.5989 8.59147 11.4965Z" fill="black"/>
<path d="M9.4066 1.07168L6.33013 4.14792C6.15553 4.32262 6.00444 4.512 5.87255 4.71118C6.43693 4.5956 7.02316 4.59206 7.59865 4.69511L10.3143 1.97962C11.3018 0.99188 12.9797 1.06254 14.0539 2.13676C15.1284 3.21124 15.199 4.88865 14.2111 5.87634L11.1351 8.95259C10.1473 9.94033 8.46991 9.86984 7.39534 8.79541C6.93795 8.3381 6.66447 7.77131 6.57522 7.19533C6.1772 7.23653 5.80162 7.40056 5.50965 7.69213L5.39648 7.80543C5.57789 8.4951 5.93937 9.15513 6.48767 9.7033C8.06267 11.2783 10.5549 11.3485 12.0432 9.86048L15.119 6.78446C16.6075 5.29598 16.5369 2.80391 14.962 1.22909C13.3874 -0.345914 10.8949 -0.416758 9.4066 1.07168Z" fill="black"/>
<path d="M15.7197 11.1075C13.3555 11.1075 11.4395 13.024 11.4395 15.3878C11.4395 17.7518 13.3555 19.6685 15.7197 19.6685C18.0837 19.6685 19.9998 17.7518 19.9998 15.3878C19.9998 13.024 18.0837 11.1075 15.7197 11.1075ZM18.2343 16.2697H16.6514V17.8596C16.6514 18.3595 16.2459 18.7641 15.7462 18.7641C15.2465 18.7641 14.8413 18.3595 14.8413 17.8596V16.2697H13.2579C12.7586 16.2697 12.3534 15.8643 12.3534 15.3648C12.3534 14.8653 12.7586 14.4599 13.2579 14.4599H14.8413V12.8829C14.8413 12.3834 15.2465 11.9782 15.7462 11.9782C16.2459 11.9782 16.6514 12.3834 16.6514 12.8829V14.4599H18.2343C18.7341 14.4599 19.1395 14.8653 19.1395 15.3648C19.1393 15.8647 18.7341 16.2697 18.2343 16.2697Z" fill="black"/>
</svg>
