<svg width="20" height="20" viewBox="0 0 20 20" fill="none" xmlns="http://www.w3.org/2000/svg">
<path d="M0.750889 8.00059e-05C0.652785 -0.00141923 0.555383 0.0181658 0.464344 0.0576968C0.373305 0.0972278 0.290445 0.155916 0.220579 0.230352C0.150713 0.304788 0.095234 0.393486 0.057367 0.491291C0.0195001 0.589097 0 0.69406 0 0.80008C0 0.9061 0.0195001 1.01106 0.057367 1.10887C0.095234 1.20667 0.150713 1.29537 0.220579 1.36981C0.290445 1.44424 0.373305 1.50293 0.464344 1.54246C0.555383 1.58199 0.652785 1.60158 0.750889 1.60008H2.14193C2.30917 1.60008 2.44873 1.71325 2.49619 1.88758L5.65133 13.4782C5.92825 14.4956 6.79907 15.2001 7.78127 15.2001H15.9077C16.906 15.2001 17.7874 14.471 18.0507 13.4313L19.9738 5.81102C20.0038 5.69231 20.0081 5.56772 19.9863 5.44694C19.9645 5.32615 19.9172 5.21244 19.8481 5.11463C19.779 5.01682 19.6899 4.93755 19.5878 4.883C19.4857 4.82844 19.3734 4.80007 19.2595 4.80008H4.83291L3.9176 1.43602H3.91615C3.68524 0.587947 2.95934 8.00059e-05 2.14193 8.00059e-05H0.750889ZM8.15434 16.8001C7.76163 16.8001 7.38501 16.9687 7.10733 17.2687C6.82965 17.5688 6.67365 17.9757 6.67365 18.4001C6.67365 18.8244 6.82965 19.2314 7.10733 19.5315C7.38501 19.8315 7.76163 20.0001 8.15434 20.0001C8.54704 20.0001 8.92366 19.8315 9.20134 19.5315C9.47902 19.2314 9.63503 18.8244 9.63503 18.4001C9.63503 17.9757 9.47902 17.5688 9.20134 17.2687C8.92366 16.9687 8.54704 16.8001 8.15434 16.8001ZM15.5578 16.8001C15.1651 16.8001 14.7885 16.9687 14.5108 17.2687C14.2331 17.5688 14.0771 17.9757 14.0771 18.4001C14.0771 18.8244 14.2331 19.2314 14.5108 19.5315C14.7885 19.8315 15.1651 20.0001 15.5578 20.0001C15.9505 20.0001 16.3271 19.8315 16.6048 19.5315C16.8825 19.2314 17.0385 18.8244 17.0385 18.4001C17.0385 17.9757 16.8825 17.5688 16.6048 17.2687C16.3271 16.9687 15.9505 16.8001 15.5578 16.8001Z" fill="#0D0F2B"/>
</svg>
