<svg width="20" height="20" viewBox="0 0 20 20" fill="none" xmlns="http://www.w3.org/2000/svg">
<path d="M13.7931 4.375C13.7931 1.95875 11.6317 0 8.96552 0C6.29931 0 4.13793 1.95875 4.13793 4.375C4.13793 6.79125 6.29931 8.75 8.96552 8.75C11.6317 8.75 13.7931 6.79125 13.7931 4.375ZM5.51724 4.375C5.51724 2.64911 7.06109 1.25 8.96552 1.25C10.8699 1.25 12.4138 2.64911 12.4138 4.375C12.4138 6.10089 10.8699 7.5 8.96552 7.5C7.06109 7.5 5.51724 6.10089 5.51724 4.375ZM8.96663 8.75C4.02417 8.75 0 12.2515 0 16.5755V19.375C0 19.7202 0.308769 20 0.689655 20C1.07054 20 1.37931 19.7202 1.37931 19.375V16.5755C1.37931 12.9535 4.77367 10 8.96663 10C9.87746 10 10.7652 10.1389 11.6002 10.4069C11.9593 10.5221 12.3534 10.3517 12.4805 10.0264C12.6077 9.70098 12.4197 9.34381 12.0606 9.22859C11.0781 8.91328 10.0347 8.75 8.96663 8.75Z" fill="#0D0F2B"/>
<path fill-rule="evenodd" clip-rule="evenodd" d="M12.4201 18.0304L18.5143 12.5076C18.7792 12.2675 19.2164 12.2671 19.4857 12.5112C19.7569 12.7569 19.7556 13.1505 19.4869 13.3939L12.6839 19.5592C12.4135 19.8042 11.9791 19.8021 11.7098 19.5581C11.7022 19.5511 11.7003 19.5494 11.6984 19.5477L9.27125 17.3481C9.00182 17.1039 9.00217 16.7085 9.27149 16.4645C9.5427 16.2187 9.97738 16.2203 10.2466 16.4642L12.1975 18.2322L12.4201 18.0304Z" fill="#2A2630"/>
</svg>
