<svg width="20" height="18" viewBox="0 0 20 18" fill="none" xmlns="http://www.w3.org/2000/svg">
<path d="M19.3568 11.756L13.575 2.40899C12.8161 1.18252 11.6552 0.480591 10.3878 0.480591C9.12034 0.480591 7.95949 1.18252 7.20058 2.40709L1.41881 11.756C0.650122 12.9976 0.566016 14.3218 1.18898 15.3889C1.81097 16.457 3.02562 17.0697 4.51996 17.0697H16.2556C17.75 17.0697 18.9646 16.457 19.5866 15.3899C20.2096 14.3227 20.1255 12.9986 19.3568 11.756ZM10.3878 13.7963C9.55261 13.7963 8.87194 13.1371 8.87194 12.327C8.87194 11.516 9.55163 10.8558 10.3878 10.8558C11.224 10.8558 11.9037 11.516 11.9037 12.327C11.9037 13.1371 11.223 13.7963 10.3878 13.7963ZM11.9848 6.75428C11.9741 6.78369 10.6147 10.0438 10.6147 10.0438C10.5775 10.133 10.4875 10.1918 10.3888 10.1918C10.29 10.1918 10.2 10.133 10.1629 10.0438L8.8025 6.78274C8.71448 6.56173 8.67634 6.36253 8.67634 6.16144C8.67634 5.24609 9.44405 4.50148 10.3878 4.50148C11.3315 4.50148 12.0992 5.24609 12.0992 6.16144C12.0992 6.36253 12.0611 6.56173 11.9848 6.75428Z" fill="#E42736"/>
</svg>
