<svg width="19" height="19" viewBox="0 0 19 19" fill="none" xmlns="http://www.w3.org/2000/svg">
<g clip-path="url(#clip0_82_20)">
<path d="M18.4771 6.175C18.7146 6.175 18.9521 5.985 18.9521 5.7V2.7075C18.9521 1.235 17.7646 0 16.2446 0H2.65965C1.13965 0 -0.0478516 1.235 -0.0478516 2.7075V16.34C-0.0478516 17.8125 1.13965 19.0475 2.65965 19.0475H16.2921C17.7646 19.0475 18.9996 17.86 18.9996 16.34V9.785C18.9996 9.5 18.7621 9.31 18.5246 9.31C18.2871 9.31 18.0496 9.5 18.0496 9.785V15.865H0.949648V2.7075C0.949648 1.7575 1.75715 0.95 2.70715 0.95H16.3396C17.2896 0.95 18.0971 1.71 18.0971 2.7075V5.7C18.0021 5.985 18.1921 6.175 18.4771 6.175ZM17.9071 16.7675C17.7171 17.48 17.0046 18.05 16.2446 18.05H2.65965C1.85215 18.05 1.18715 17.5275 0.997148 16.7675H17.9071Z" fill="black"/>
<path d="M11.3996 13.4425C11.2571 13.4425 11.1621 13.395 11.0671 13.3L4.98713 7.26747L2.61213 9.40497C2.42213 9.59497 2.13713 9.54747 1.94713 9.35747C1.75713 9.16747 1.80463 8.88247 1.99463 8.69247L4.70213 6.26997C4.89213 6.07997 5.17713 6.12747 5.36713 6.26997L11.7796 12.6825C11.9696 12.8725 11.9696 13.1575 11.7796 13.3475C11.6846 13.395 11.5421 13.4425 11.3996 13.4425Z" fill="black"/>
<path d="M16.6253 12.065C16.4828 12.065 16.3878 12.0175 16.2928 11.9225L12.9203 8.55L11.0203 10.1175C10.8303 10.3075 10.4978 10.26 10.3553 10.07C10.1653 9.88 10.2128 9.5475 10.4028 9.405L12.6353 7.5525C12.8253 7.41 13.1103 7.41 13.3003 7.6L17.0053 11.305C17.1953 11.495 17.1953 11.78 17.0053 11.97C16.8628 12.0175 16.7203 12.065 16.6253 12.065Z" fill="black"/>
<path d="M10.9248 6.65002C9.5948 6.65002 8.5498 5.60502 8.5498 4.27502C8.5498 2.94502 9.5948 1.90002 10.9248 1.90002C12.2548 1.90002 13.2998 2.94502 13.2998 4.27502C13.2998 5.60502 12.2548 6.65002 10.9248 6.65002ZM10.9248 2.85002C10.1173 2.85002 9.4998 3.46752 9.4998 4.27502C9.4998 5.08252 10.1173 5.70002 10.9248 5.70002C11.7323 5.70002 12.3498 5.08252 12.3498 4.27502C12.3498 3.46752 11.7323 2.85002 10.9248 2.85002Z" fill="black"/>
</g>
<defs>
<clipPath id="clip0_82_20">
<rect width="19" height="19" fill="white"/>
</clipPath>
</defs>
</svg>
