<svg width="131" height="97" viewBox="0 0 131 97" fill="none" xmlns="http://www.w3.org/2000/svg">
<path d="M53.199 7.89347C52.1889 5.08567 51.1695 2.25471 51.151 2.21764C50.6645 1.12881 49.5386 0.443073 48.3525 0.563539C47.6019 0.623773 29.8423 2.15277 18.4629 11.3036C12.5137 16.7987 0.633789 48.9263 0.633789 76.7031C0.633789 77.1942 0.758889 77.6715 1.00446 78.0977C9.21009 92.5074 31.5798 96.2789 36.6765 96.4411C36.7089 96.4457 36.7367 96.4457 36.7645 96.4457C37.6634 96.4457 38.5066 96.0148 39.0441 95.2874L44.5578 87.8185C35.4487 86.4331 33.8038 84.6261 33.4193 84.3435C31.3621 82.8284 29.8423 80.7063 31.6864 78.0282C33.1042 75.9479 36.0788 75.2621 38.3584 76.4344C40.6936 77.5232 46.944 81.026 65.5005 80.9333C83.9272 80.8777 92.017 77.0182 92.1328 76.9348C95.2279 75.5401 97.6419 76.1147 99.1477 78.1811C100.941 80.9936 99.662 82.8979 97.6141 84.4083C97.2295 84.691 96.2982 85.4833 86.5126 87.7999L91.9568 95.2828C92.4896 96.0148 93.3375 96.4411 94.2364 96.4411C94.2688 96.4411 94.2966 96.4411 94.3244 96.4365C99.4257 96.2743 121.795 92.5028 129.996 78.0931C130.242 77.6668 130.367 77.1896 130.367 76.6985C130.367 48.9263 118.487 16.7987 112.39 11.1831C101.159 2.15741 83.399 0.628406 82.6484 0.563539C81.4623 0.461606 80.3364 1.13344 79.8499 2.21764C79.8313 2.25471 78.8398 5.13201 77.8807 7.90737C77.8807 7.90737 70.3237 6.80001 65.5005 6.80001C60.6771 6.80001 53.199 7.89347 53.199 7.89347ZM46.9671 67.0333C41.8473 67.0333 37.7005 60.8571 37.7005 53.2306C37.7005 45.6042 41.8473 39.4279 46.9671 39.4279C52.1055 38.6634 56.1226 45.6042 56.2338 53.2306C56.2338 60.8571 52.0869 67.0333 46.9671 67.0333ZM84.0338 67.0333C78.9139 67.0333 74.7671 60.8154 74.7671 53.1472C74.7671 45.4791 78.9139 39.2611 84.0338 39.2611C89.1536 39.2611 93.3004 45.4791 93.3004 53.1472C93.3004 60.8154 89.1536 67.0333 84.0338 67.0333Z" fill="#2082EA"/>
</svg>
