<svg width="16" height="16" viewBox="0 0 16 16" fill="none" xmlns="http://www.w3.org/2000/svg">
<path d="M14.0003 0.666626H2.00033C1.26366 0.666626 0.666992 1.26329 0.666992 1.99996V14C0.666992 14.7366 1.26366 15.3333 2.00033 15.3333H14.0003C14.737 15.3333 15.3337 14.7366 15.3337 14V1.99996C15.3337 1.26329 14.737 0.666626 14.0003 0.666626ZM5.30299 12.6666H3.33633V6.33863H5.30299V12.6666ZM4.29966 5.43396C3.66566 5.43396 3.15299 4.91996 3.15299 4.28729C3.15299 3.65463 3.66633 3.14129 4.29966 3.14129C4.93166 3.14129 5.44566 3.65529 5.44566 4.28729C5.44566 4.91996 4.93166 5.43396 4.29966 5.43396ZM12.6697 12.6666H10.7043V9.58929C10.7043 8.85529 10.691 7.91129 9.68233 7.91129C8.65899 7.91129 8.50166 8.71063 8.50166 9.53596V12.6666H6.53633V6.33863H8.42299V7.20329H8.44966C8.71233 6.70596 9.35366 6.18129 10.3103 6.18129C12.3017 6.18129 12.6697 7.49196 12.6697 9.19596V12.6666Z" fill="#FFFFFF"/>
</svg>
